<?xml version="1.0" standalone="no"?>
<!DOCTYPE svg PUBLIC "-//W3C//DTD SVG 1.1//EN" "http://www.w3.org/Graphics/SVG/1.1/DTD/svg11.dtd" >
<svg xmlns="http://www.w3.org/2000/svg" xmlns:xlink="http://www.w3.org/1999/xlink" version="1.1">
<metadata>
Created by FontForge 20190801 at Wed Jul 31 18:13:45 2013
 By Jimmy Wärting
Copyright (c) 2013 Textaxis. v 1.0 by I\u00F1 igo Jerez. Barcelona. All rights reserved.
</metadata>
<defs>
<font id="Eina01-SemiBold" horiz-adv-x="582" >
  <font-face 
    font-family="Eina 01 SemiBold"
    font-weight="600"
    font-stretch="normal"
    units-per-em="1000"
    panose-1="2 0 0 0 0 0 0 0 0 0"
    ascent="770"
    descent="-230"
    x-height="519"
    cap-height="710"
    bbox="-52 -261 1252 1099"
    underline-thickness="50"
    underline-position="-100"
    stemh="87"
    stemv="119"
    unicode-range="U+0020-FB02"
  />
<missing-glyph horiz-adv-x="260" 
 />
    <glyph glyph-name="fi" unicode="fi" horiz-adv-x="599" 
d="M97 519v55c0 122 69 176 168 176c23 0 40 -3 40 -3v-105s-6 2 -22 2c-48 0 -67 -20 -67 -77v-48h92v-95h-92v-424h-119v424h-83v95h83zM453 606c-44 0 -75 30 -75 73c0 44 31 75 75 75c43 0 74 -31 74 -75c0 -43 -31 -73 -74 -73zM393 0v519h119v-519h-119z" />
    <glyph glyph-name="fl" unicode="fl" horiz-adv-x="585" 
d="M97 519v55c0 122 69 176 168 176c23 0 40 -3 40 -3v-105s-6 2 -22 2c-48 0 -67 -20 -67 -77v-48h92v-95h-92v-424h-119v424h-83v95h83zM513 0h-119v750h119v-750z" />
    <glyph glyph-name=".notdef" horiz-adv-x="260" 
 />
    <glyph glyph-name="Eth" unicode="&#xd0;" horiz-adv-x="752" 
d="M325 0h-241v299h-74v112h74v299h241c245 0 381 -146 381 -355s-136 -355 -381 -355zM578 355c0 147 -82 240 -257 240h-116v-184h177v-112h-177v-184h116c175 0 257 93 257 240z" />
    <glyph glyph-name="eth" unicode="&#xf0;" horiz-adv-x="611" 
d="M204 560l-34 53l99 49c-35 23 -68 41 -94 55l72 60c41 -21 78 -44 113 -70l109 55l35 -53l-93 -46c102 -98 162 -227 162 -387c0 -162 -107 -288 -268 -288s-267 125 -267 271c0 149 95 272 251 272c74 0 123 -31 133 -45c-25 56 -62 99 -99 133zM157 259
c0 -94 62 -166 148 -166c88 0 150 72 150 166c0 96 -62 167 -150 167c-86 0 -148 -71 -148 -167z" />
    <glyph glyph-name="Lslash" unicode="&#x141;" horiz-adv-x="545" 
d="M534 112v-112h-450v253l-77 -20v101l77 21v355h121v-323l101 27v-101l-101 -27v-174h329z" />
    <glyph glyph-name="lslash" unicode="&#x142;" horiz-adv-x="263" 
d="M191 0h-118v254l-75 -21v98l75 21v398h118v-364l74 21v-99l-74 -21v-287z" />
    <glyph glyph-name="Scaron" unicode="&#x160;" horiz-adv-x="636" 
d="M312 95c97 0 153 35 153 99c0 173 -397 37 -397 321c0 113 96 210 254 210c167 0 255 -102 258 -235h-119c-1 70 -48 126 -139 126c-83 0 -134 -35 -134 -98c0 -156 400 -35 400 -319c0 -129 -112 -213 -282 -213c-189 0 -262 120 -266 236h120c5 -76 56 -127 152 -127z
M325 754l-152 79v96l152 -75l153 75v-96z" />
    <glyph glyph-name="scaron" unicode="&#x161;" horiz-adv-x="502" 
d="M250 -12c-152 0 -214 83 -220 178h115c3 -45 39 -80 112 -80c62 0 96 23 96 59c0 110 -298 12 -298 223c0 87 78 163 206 163c149 0 199 -102 204 -172h-114c-4 37 -32 75 -93 75c-59 0 -89 -24 -89 -62c0 -101 298 -12 298 -222c0 -88 -72 -162 -217 -162zM260 570
l-152 79v96l152 -75l153 75v-96z" />
    <glyph glyph-name="Yacute" unicode="&#xdd;" horiz-adv-x="630" 
d="M499 710h141l-265 -461v-249h-121v249l-265 461h140l184 -336h2zM319 941h123l-79 -171h-107z" />
    <glyph glyph-name="yacute" unicode="&#xfd;" horiz-adv-x="545" 
d="M126 -208l88 212l-209 515h127l141 -376l143 376h124l-296 -727h-118zM284 760h123l-79 -171h-107z" />
    <glyph glyph-name="Thorn" unicode="&#xde;" horiz-adv-x="643" 
d="M205 186v-186h-121v710h121v-92h173c169 0 238 -95 238 -216s-73 -216 -238 -216h-173zM205 301h174c79 0 115 39 115 101s-36 101 -115 101h-174v-202z" />
    <glyph glyph-name="thorn" unicode="&#xfe;" horiz-adv-x="632" 
d="M191 58v-266h-119v958h119v-290c33 44 88 71 161 71c156 0 242 -121 242 -272c0 -148 -86 -271 -242 -271c-80 0 -129 31 -161 70zM190 264c0 -94 47 -171 141 -171c90 0 144 74 144 166c0 91 -54 166 -144 166c-89 0 -141 -72 -141 -161z" />
    <glyph glyph-name="Zcaron" unicode="&#x17d;" horiz-adv-x="665" 
d="M614 710v-106l-409 -492h413v-112h-571v106l409 492h-405v112h563zM332 755l-152 79v96l152 -75l153 75v-96z" />
    <glyph glyph-name="zcaron" unicode="&#x17e;" horiz-adv-x="539" 
d="M485 422l-286 -319h290v-103h-439v97l285 319h-281v103h431v-97zM269 570l-152 79v96l152 -75l153 75v-96z" />
    <glyph glyph-name="onehalf" unicode="&#xbd;" horiz-adv-x="833" 
d="M108 274v341h-85v67l102 24h76v-432h-93zM135 0l392 710h90l-392 -710h-90zM482 0v72l168 145c31 26 41 47 41 78c0 33 -18 60 -59 60c-38 0 -60 -24 -60 -63c0 -14 2 -22 2 -22h-93s-1 10 -1 23c0 88 65 149 152 149c94 0 153 -63 153 -141c0 -64 -23 -102 -78 -146
l-84 -68h162v-87h-303z" />
    <glyph glyph-name="onequarter" unicode="&#xbc;" horiz-adv-x="786" 
d="M108 274v341h-85v67l102 24h76v-432h-93zM135 0l392 710h90l-392 -710h-90zM409 90v76l193 267h93v-264h45v-79h-45v-90h-85v90h-201zM500 169h110v152z" />
    <glyph glyph-name="onesuperior" unicode="&#xb9;" horiz-adv-x="286" 
d="M206 869v-433h-93v341h-85v68l102 24h76z" />
    <glyph glyph-name="threequarters" unicode="&#xbe;" horiz-adv-x="859" 
d="M46 402h90c3 -34 23 -54 60 -54c33 0 56 20 56 50c0 33 -15 51 -63 51h-41v77h45c42 0 63 21 63 53c0 28 -20 50 -58 50c-39 0 -58 -25 -60 -60h-91c2 79 57 145 152 145c96 0 147 -51 147 -127c0 -38 -18 -75 -57 -95c43 -17 62 -56 62 -98c0 -76 -65 -132 -155 -132
c-91 0 -146 56 -150 140zM209 0l392 710h89l-392 -710h-89zM482 90v76l194 267h93v-264h44v-79h-44v-90h-85v90h-202zM574 169h110v152z" />
    <glyph glyph-name="threesuperior" unicode="&#xb3;" horiz-adv-x="388" 
d="M142 613v78h46c41 0 62 21 62 53c0 28 -20 50 -57 50c-39 0 -59 -25 -60 -60h-91c2 79 57 145 151 145c97 0 147 -51 147 -127c0 -38 -17 -76 -56 -96c42 -17 62 -55 62 -97c0 -77 -65 -132 -155 -132c-91 0 -146 55 -150 140h90c3 -35 23 -55 60 -55c33 0 56 20 56 50
c0 33 -16 51 -63 51h-42z" />
    <glyph glyph-name="twosuperior" unicode="&#xb2;" horiz-adv-x="390" 
d="M347 437h-303v71l168 145c30 26 41 47 41 79c0 33 -19 60 -59 60c-38 0 -60 -24 -60 -64c0 -13 2 -21 2 -21h-93s-1 10 -1 22c0 89 65 150 152 150c94 0 153 -64 153 -141c0 -63 -24 -102 -78 -146l-84 -68h162v-87z" />
    <glyph glyph-name="brokenbar" unicode="&#xa6;" horiz-adv-x="283" 
d="M85 749h112v-319h-112v319zM85 319h112v-319h-112v319z" />
    <glyph glyph-name="minus" unicode="&#x2212;" 
d="M552 315v-112h-522v112h522z" />
    <glyph glyph-name="multiply" unicode="&#xd7;" 
d="M51 420l79 80l161 -161l160 160l80 -79l-161 -161l161 -160l-80 -80l-160 161l-161 -161l-79 80l160 160z" />
    <glyph glyph-name="space" unicode=" " horiz-adv-x="260" 
 />
    <glyph glyph-name="exclam" unicode="!" horiz-adv-x="270" 
d="M86 200l-21 510h140l-21 -510h-98zM135 -8c-45 0 -78 31 -78 77c0 45 33 77 78 77c46 0 78 -32 78 -77c0 -46 -32 -77 -78 -77z" />
    <glyph glyph-name="quotedbl" unicode="&#x22;" horiz-adv-x="430" 
d="M176 710v-316h-112v316h112zM366 710v-316h-112v316h112z" />
    <glyph glyph-name="numbersign" unicode="#" horiz-adv-x="616" 
d="M582 507l-19 -89h-96l-27 -127h96l-18 -89h-97l-42 -202h-92l42 202h-102l-42 -202h-92l43 202h-102l19 89h102l26 127h-102l19 89h102l43 203h92l-43 -203h102l43 203h92l-43 -203h96zM273 418l-27 -127h102l27 127h-102z" />
    <glyph glyph-name="dollar" unicode="$" 
d="M334 -125h-65v111c-159 8 -231 112 -234 230h120c5 -63 41 -110 114 -119v211l-43 13c-113 34 -169 105 -169 201c0 108 85 190 212 201v112h65v-112c137 -14 209 -108 212 -228h-121c-3 53 -31 101 -91 115v-196l23 -6c133 -37 189 -108 189 -215
c0 -108 -79 -190 -212 -205v-113zM178 526c0 -55 29 -70 91 -94v181c-56 -7 -91 -39 -91 -87zM423 192c0 46 -23 77 -89 98v-191c54 9 89 41 89 93z" />
    <glyph glyph-name="percent" unicode="%" horiz-adv-x="955" 
d="M237 0l392 710h89l-392 -710h-89zM170 489c0 -104 24 -138 68 -138s68 34 68 138c0 105 -24 140 -68 140s-68 -35 -68 -140zM76 489c0 135 49 227 162 227s162 -92 162 -227c0 -134 -49 -225 -162 -225s-162 91 -162 225zM649 220c0 -105 24 -139 68 -139s68 34 68 139
c0 104 -24 139 -68 139s-68 -35 -68 -139zM555 220c0 134 49 226 162 226s162 -92 162 -226c0 -135 -49 -226 -162 -226s-162 91 -162 226z" />
    <glyph glyph-name="ampersand" unicode="&#x26;" horiz-adv-x="674" 
d="M109 543c0 95 71 182 202 182c130 0 201 -86 201 -179c0 -89 -57 -148 -158 -190l138 -146c18 34 28 75 28 123c0 33 -4 60 -4 60h109s4 -29 4 -58c0 -78 -22 -150 -62 -207l120 -128h-146l-48 51c-55 -42 -125 -66 -206 -66c-149 0 -250 82 -250 204
c0 89 46 158 143 201c-43 45 -71 97 -71 153zM290 89c48 0 94 14 131 40l-170 183c-67 -29 -98 -61 -98 -116c0 -62 49 -107 137 -107zM220 543c0 -34 21 -66 55 -101l7 -9l30 13c49 20 89 48 89 100c0 48 -37 83 -90 83c-55 0 -91 -36 -91 -86z" />
    <glyph glyph-name="quotesingle" unicode="'" horiz-adv-x="240" 
d="M176 710v-316h-112v316h112z" />
    <glyph glyph-name="parenleft" unicode="(" horiz-adv-x="348" 
d="M211 292c0 -167 35 -315 111 -458h-120c-73 119 -112 285 -112 458s39 339 112 458h120c-76 -144 -111 -291 -111 -458z" />
    <glyph glyph-name="parenright" unicode=")" horiz-adv-x="348" 
d="M137 292c0 167 -35 314 -111 458h120c73 -119 112 -285 112 -458s-39 -339 -112 -458h-120c76 143 111 291 111 458z" />
    <glyph glyph-name="asterisk" unicode="*" horiz-adv-x="388" 
d="M372 567l-115 -37l70 -97l-63 -47l-71 98l-70 -98l-64 47l72 97l-115 37l25 75l114 -37v120h78v-121l114 38z" />
    <glyph glyph-name="plus" unicode="+" 
d="M235 519h112v-204h205v-112h-205v-203h-112v203h-205v112h205v204z" />
    <glyph glyph-name="comma" unicode="," horiz-adv-x="245" 
d="M70 139h133l-82 -270h-106z" />
    <glyph glyph-name="hyphen" unicode="-" horiz-adv-x="406" 
d="M362 315v-111h-318v111h318z" />
    <glyph glyph-name="period" unicode="." horiz-adv-x="245" 
d="M123 -8c-48 0 -83 33 -83 81c0 47 35 82 83 82c47 0 82 -35 82 -82c0 -48 -35 -81 -82 -81z" />
    <glyph glyph-name="slash" unicode="/" horiz-adv-x="453" 
d="M22 0l289 710h120l-289 -710h-120z" />
    <glyph glyph-name="zero" unicode="0" 
d="M291 -15c-169 0 -255 151 -255 370s86 370 255 370c168 0 255 -151 255 -370s-87 -370 -255 -370zM291 610c-85 0 -131 -81 -131 -255c0 -175 46 -255 131 -255s131 80 131 255c0 174 -46 255 -131 255z" />
    <glyph glyph-name="one" unicode="1" 
d="M526 101v-101h-434v101h156v489h-152v80l176 40h98v-609h156z" />
    <glyph glyph-name="two" unicode="2" 
d="M535 0h-483v101l280 267c47 44 67 83 67 135c0 66 -45 110 -114 110c-79 0 -115 -52 -115 -120c0 -21 3 -33 3 -33h-121s-2 15 -2 35c0 137 93 230 235 230c149 0 237 -92 237 -219c0 -93 -34 -156 -121 -233l-182 -161h316v-112z" />
    <glyph glyph-name="three" unicode="3" 
d="M222 312v103h64c85 0 124 42 124 97c0 59 -38 103 -116 103c-80 0 -114 -56 -116 -111h-119c3 123 95 221 236 221c145 0 233 -84 233 -206c0 -65 -31 -124 -103 -152c79 -28 112 -88 112 -161c0 -124 -97 -221 -246 -221c-145 0 -240 90 -247 226h120
c5 -66 46 -117 127 -117c75 0 125 43 125 112c0 65 -43 106 -129 106h-65z" />
    <glyph glyph-name="four" unicode="4" 
d="M548 261v-106h-76v-155h-113v155h-340v91l327 464h126v-449h76zM359 547h-1l-203 -286h204v286z" />
    <glyph glyph-name="five" unicode="5" 
d="M64 298l59 412h381v-112h-289l-24 -172c15 15 61 46 125 46c160 0 224 -123 224 -238c0 -142 -99 -249 -249 -249c-141 0 -233 85 -244 211h123c9 -51 47 -100 121 -100c77 0 127 55 127 138c0 80 -48 133 -127 133c-77 0 -112 -57 -117 -69h-110z" />
    <glyph glyph-name="six" unicode="6" 
d="M297 -15c-156 0 -252 115 -252 256c0 164 107 319 247 469h150c-80 -77 -170 -176 -224 -277c23 16 57 31 103 31c142 0 227 -107 227 -235c0 -134 -102 -244 -251 -244zM424 229c0 81 -53 136 -127 136c-75 0 -127 -55 -127 -136c0 -82 52 -137 127 -137
c74 0 127 55 127 137z" />
    <glyph glyph-name="seven" unicode="7" 
d="M160 509h-118v201h512v-108c-150 -198 -199 -363 -235 -602h-127c37 243 105 437 223 600h-255v-91z" />
    <glyph glyph-name="eight" unicode="8" 
d="M291 -15c-155 0 -244 86 -244 207c0 68 33 139 102 175c-57 34 -84 96 -84 157c0 113 83 201 226 201s227 -89 227 -203c0 -61 -27 -122 -86 -155c69 -37 102 -107 102 -175c0 -121 -88 -207 -243 -207zM291 308c-75 0 -121 -45 -121 -108c0 -58 39 -109 121 -109
s121 51 121 109c0 63 -46 108 -121 108zM291 417c71 0 113 42 113 102c0 51 -37 101 -113 101s-112 -48 -112 -99c0 -60 40 -104 112 -104z" />
    <glyph glyph-name="nine" unicode="9" 
d="M285 725c156 0 252 -115 252 -256c0 -165 -107 -319 -247 -469h-150c79 77 169 175 224 276c-24 -16 -57 -31 -103 -31c-142 0 -227 108 -227 236c0 134 102 244 251 244zM158 481c0 -81 53 -137 127 -137c75 0 127 56 127 137s-52 137 -127 137
c-74 0 -127 -56 -127 -137z" />
    <glyph glyph-name="colon" unicode=":" horiz-adv-x="245" 
d="M123 -8c-48 0 -83 33 -83 81c0 47 35 82 83 82c47 0 82 -35 82 -82c0 -48 -35 -81 -82 -81zM123 363c-48 0 -83 34 -83 82c0 47 35 82 83 82c47 0 82 -35 82 -82c0 -48 -35 -82 -82 -82z" />
    <glyph glyph-name="semicolon" unicode=";" horiz-adv-x="248" 
d="M123 363c-48 0 -83 34 -83 82c0 47 35 82 83 82c47 0 82 -35 82 -82c0 -48 -35 -82 -82 -82zM70 139h133l-82 -270h-106z" />
    <glyph glyph-name="less" unicode="&#x3c;" 
d="M528 134v-118l-474 188v95l474 187v-118l-326 -117z" />
    <glyph glyph-name="equal" unicode="=" 
d="M552 210v-112h-522v112h522zM552 421v-113h-522v113h522z" />
    <glyph glyph-name="greater" unicode="&#x3e;" 
d="M54 16v118l326 117l-326 117v118l474 -187v-95z" />
    <glyph glyph-name="question" unicode="?" horiz-adv-x="525" 
d="M35 515c0 117 90 210 227 210c145 0 225 -92 225 -204c0 -167 -180 -212 -180 -305c0 -16 2 -22 2 -22h-116s-3 11 -3 23c0 152 176 189 176 298c0 61 -38 101 -104 101c-67 0 -107 -46 -107 -109c0 -24 5 -45 5 -45h-120s-5 20 -5 53zM256 -8c-46 0 -78 31 -78 77
c0 45 32 77 78 77c45 0 78 -32 78 -77c0 -46 -33 -77 -78 -77z" />
    <glyph glyph-name="at" unicode="@" horiz-adv-x="820" 
d="M488 278c0 48 -20 82 -70 82c-62 0 -99 -54 -99 -132c0 -59 31 -84 75 -84c62 0 94 67 94 134zM628 39h101c-68 -99 -185 -160 -314 -160c-232 0 -371 153 -371 369c0 215 159 380 379 380c212 0 354 -129 354 -314c0 -164 -107 -247 -202 -247c-52 0 -79 25 -91 51
c-30 -40 -76 -51 -107 -51c-91 0 -149 61 -149 160c0 111 63 213 174 213c45 0 87 -15 111 -54l9 40h80l-40 -201c-1 -6 -7 -27 -7 -39c0 -25 14 -42 37 -42c60 0 104 69 104 165c0 160 -117 242 -275 242c-177 0 -289 -128 -289 -301c0 -185 113 -294 288 -294
c86 0 165 38 208 83z" />
    <glyph glyph-name="A" unicode="A" horiz-adv-x="680" 
d="M128 0h-128l275 710h129l276 -710h-132l-51 137h-318zM339 560h-2l-118 -313h238z" />
    <glyph glyph-name="B" unicode="B" horiz-adv-x="668" 
d="M382 0h-298v710h287c163 0 235 -84 235 -193c0 -75 -39 -132 -103 -158c69 -24 115 -82 115 -160c0 -124 -82 -199 -236 -199zM381 304h-178v-194h177c75 0 116 33 116 97c0 61 -41 97 -115 97zM372 600h-169v-185h169c68 0 112 28 112 92c0 56 -35 93 -112 93z" />
    <glyph glyph-name="C" unicode="C" horiz-adv-x="779" 
d="M45 356c0 218 148 369 355 369c176 0 312 -105 341 -274h-129c-24 100 -105 158 -212 158c-142 0 -227 -100 -227 -253s85 -254 227 -254c107 0 188 58 212 158h129c-29 -169 -165 -274 -341 -274c-207 0 -355 151 -355 370z" />
    <glyph glyph-name="D" unicode="D" horiz-adv-x="752" 
d="M325 0h-241v710h241c245 0 381 -146 381 -355s-136 -355 -381 -355zM578 355c0 147 -82 243 -257 243h-116v-486h116c175 0 257 96 257 243z" />
    <glyph glyph-name="E" unicode="E" horiz-adv-x="636" 
d="M583 112v-112h-499v710h499v-112h-378v-182h361v-112h-361v-192h378z" />
    <glyph glyph-name="F" unicode="F" horiz-adv-x="578" 
d="M205 0h-121v710h464v-112h-343v-182h326v-112h-326v-304z" />
    <glyph glyph-name="G" unicode="G" horiz-adv-x="810" 
d="M740 388v-388h-109v102c-44 -69 -128 -114 -238 -114c-203 0 -348 149 -348 368c0 218 148 369 355 369c172 0 305 -99 338 -261h-131c-26 93 -105 145 -207 145c-142 0 -227 -100 -227 -253s87 -259 227 -259c121 0 208 64 223 181h-190v110h307z" />
    <glyph glyph-name="H" unicode="H" horiz-adv-x="747" 
d="M663 710v-710h-121v304h-337v-304h-121v710h121v-294h337v294h121z" />
    <glyph glyph-name="I" unicode="I" horiz-adv-x="289" 
d="M205 710v-710h-121v710h121z" />
    <glyph glyph-name="J" unicode="J" horiz-adv-x="584" 
d="M390 226v484h121v-480c0 -147 -93 -243 -241 -243c-144 0 -240 85 -240 229c0 28 3 46 3 46h122s-3 -17 -3 -46c0 -73 44 -121 118 -121c78 0 120 50 120 131z" />
    <glyph glyph-name="K" unicode="K" horiz-adv-x="696" 
d="M707 0h-151l-227 324l-124 -129v-195h-121v710h121v-362s59 60 329 362h159l-280 -295z" />
    <glyph glyph-name="L" unicode="L" horiz-adv-x="545" 
d="M534 112v-112h-450v710h121v-598h329z" />
    <glyph glyph-name="M" unicode="M" horiz-adv-x="839" 
d="M195 710l224 -294l225 294h111v-710h-119v519l-215 -278h-4l-214 278v-519h-119v710h111z" />
    <glyph glyph-name="N" unicode="N" horiz-adv-x="755" 
d="M203 510v-510h-119v710h123l345 -511v511h119v-710h-124z" />
    <glyph glyph-name="O" unicode="O" horiz-adv-x="824" 
d="M173 355c0 -153 100 -254 239 -254s239 101 239 254s-100 254 -239 254s-239 -101 -239 -254zM45 355c0 211 151 370 367 370s367 -159 367 -370s-151 -370 -367 -370s-367 159 -367 370z" />
    <glyph glyph-name="P" unicode="P" horiz-adv-x="643" 
d="M205 392h174c79 0 115 40 115 102s-36 104 -115 104h-174v-206zM205 280v-280h-121v710h294c169 0 238 -95 238 -216s-73 -214 -238 -214h-173z" />
    <glyph glyph-name="Q" unicode="Q" horiz-adv-x="824" 
d="M779 355c0 -114 -45 -214 -121 -280l145 -201h-140l-100 140c-45 -18 -96 -29 -151 -29c-216 0 -367 159 -367 370s151 370 367 370s367 -159 367 -370zM651 355c0 153 -99 254 -239 254c-139 0 -239 -101 -239 -254c0 -152 100 -254 239 -254c140 0 239 102 239 254z
" />
    <glyph glyph-name="R" unicode="R" horiz-adv-x="673" 
d="M654 0h-142l-144 280h-163v-280h-121v710h312c157 0 234 -91 234 -215c0 -94 -45 -170 -139 -200zM508 495c0 61 -36 103 -111 103h-192v-206h192c75 0 111 42 111 103z" />
    <glyph glyph-name="S" unicode="S" horiz-adv-x="636" 
d="M312 95c97 0 153 35 153 99c0 173 -397 37 -397 321c0 113 96 210 254 210c167 0 255 -102 258 -235h-119c-1 70 -48 126 -139 126c-83 0 -134 -35 -134 -98c0 -156 400 -35 400 -319c0 -129 -112 -213 -282 -213c-189 0 -262 120 -266 236h120c5 -76 56 -127 152 -127z
" />
    <glyph glyph-name="T" unicode="T" horiz-adv-x="546" 
d="M539 710v-115h-206v-595h-121v595h-206v115h533z" />
    <glyph glyph-name="U" unicode="U" horiz-adv-x="744" 
d="M372 -15c-163 0 -295 99 -295 307v418h121v-423c0 -113 57 -190 174 -190s174 77 174 190v423h121v-418c0 -208 -133 -307 -295 -307z" />
    <glyph glyph-name="V" unicode="V" horiz-adv-x="687" 
d="M548 710h133l-275 -710h-126l-274 710h137l201 -550h2z" />
    <glyph glyph-name="W" unicode="W" horiz-adv-x="1044" 
d="M521 539l-159 -539h-130l-221 710h137l149 -539h2l158 539h133l158 -539h2l150 539h133l-221 -710h-130l-159 539h-2z" />
    <glyph glyph-name="X" unicode="X" horiz-adv-x="688" 
d="M344 458l186 252h149l-264 -349l277 -361h-153l-195 264l-196 -264h-153l277 361l-267 349h152z" />
    <glyph glyph-name="Y" unicode="Y" horiz-adv-x="630" 
d="M499 710h141l-265 -461v-249h-121v249l-265 461h140l184 -336h2z" />
    <glyph glyph-name="Z" unicode="Z" horiz-adv-x="659" 
d="M611 710v-106l-409 -492h413v-112h-571v106l409 492h-405v112h563z" />
    <glyph glyph-name="bracketleft" unicode="[" horiz-adv-x="325" 
d="M303 -57v-109h-231v916h231v-109h-120v-698h120z" />
    <glyph glyph-name="backslash" unicode="\" horiz-adv-x="453" 
d="M142 710l289 -710h-120l-289 710h120z" />
    <glyph glyph-name="bracketright" unicode="]" horiz-adv-x="325" 
d="M22 -166v109h120v698h-120v109h231v-916h-231z" />
    <glyph glyph-name="asciicircum" unicode="^" 
d="M526 250h-118l-117 307l-117 -307h-118l187 459h95z" />
    <glyph glyph-name="underscore" unicode="_" horiz-adv-x="500" 
d="M500 -89v-111h-500v111h500z" />
    <glyph glyph-name="grave" unicode="`" horiz-adv-x="356" 
d="M84 760h124l63 -171h-107z" />
    <glyph glyph-name="a" unicode="a" horiz-adv-x="577" 
d="M392 244l-138 -21c-73 -11 -97 -38 -97 -74c0 -49 35 -68 92 -68c96 0 143 60 143 130v33zM225 -12c-129 0 -182 68 -182 157c0 88 62 145 199 164l150 21v8c0 63 -40 95 -111 95c-65 0 -102 -29 -110 -77h-116c10 91 72 175 229 175c152 0 224 -75 224 -194v-239
c0 -34 6 -77 15 -98h-113c-1 0 -7 26 -7 68c-35 -53 -95 -80 -178 -80z" />
    <glyph glyph-name="b" unicode="b" horiz-adv-x="636" 
d="M191 451c29 44 86 80 166 80c154 0 241 -123 241 -272c0 -148 -87 -271 -241 -271c-80 0 -141 32 -175 86v-74h-110v750h119v-299zM187 259c0 -93 55 -166 146 -166c90 0 146 73 146 166c0 95 -56 167 -146 167c-91 0 -146 -72 -146 -167z" />
    <glyph glyph-name="c" unicode="c" horiz-adv-x="572" 
d="M38 259c0 151 106 272 259 272c154 0 232 -107 246 -200h-122c-14 56 -61 95 -125 95c-85 0 -139 -69 -139 -167c0 -97 54 -166 139 -166c64 0 111 39 125 95h122c-14 -93 -92 -200 -246 -200c-153 0 -259 121 -259 271z" />
    <glyph glyph-name="d" unicode="d" horiz-adv-x="636" 
d="M444 451v299h119v-750h-110v74c-33 -54 -94 -86 -175 -86c-153 0 -240 123 -240 271c0 149 87 272 240 272c81 0 137 -36 166 -80zM449 259c0 95 -55 167 -146 167c-90 0 -146 -72 -146 -167c0 -93 56 -166 146 -166c91 0 146 73 146 166z" />
    <glyph glyph-name="e" unicode="e" horiz-adv-x="588" 
d="M550 225h-395c9 -82 62 -135 145 -135c55 0 102 28 121 74h120c-31 -103 -123 -176 -244 -176c-157 0 -259 117 -259 272c0 151 104 271 258 271s255 -117 255 -269c0 -19 -1 -37 -1 -37zM296 434c-77 0 -127 -50 -139 -121h276c-10 72 -60 121 -137 121z" />
    <glyph glyph-name="f" unicode="f" horiz-adv-x="321" 
d="M93 519v55c0 122 69 176 168 176c23 0 40 -3 40 -3v-105s-6 2 -22 2c-48 0 -67 -20 -67 -77v-48h92v-95h-92v-424h-119v424h-83v95h83z" />
    <glyph glyph-name="g" unicode="g" horiz-adv-x="628" 
d="M450 445v74h110v-497c0 -137 -88 -241 -248 -241c-156 0 -227 100 -238 181h119c11 -40 46 -79 121 -79c82 0 127 50 127 123v81c-29 -45 -84 -80 -164 -80c-148 0 -239 119 -239 262s91 262 239 262c80 0 139 -32 173 -86zM446 269c0 91 -57 157 -145 157
c-86 0 -144 -66 -144 -157c0 -90 58 -157 144 -157c88 0 145 67 145 157z" />
    <glyph glyph-name="h" unicode="h" horiz-adv-x="603" 
d="M191 750v-287c24 35 74 68 151 68c126 0 193 -84 193 -205v-326h-119v311c0 71 -32 118 -103 118c-75 0 -122 -47 -122 -129v-300h-119v750h119z" />
    <glyph glyph-name="i" unicode="i" horiz-adv-x="263" 
d="M132 606c-44 0 -75 30 -75 73c0 44 31 75 75 75c43 0 74 -31 74 -75c0 -43 -31 -73 -74 -73zM72 0v519h119v-519h-119z" />
    <glyph glyph-name="j" unicode="j" horiz-adv-x="263" 
d="M132 606c-44 0 -75 30 -75 73c0 44 31 75 75 75c43 0 74 -31 74 -75c0 -43 -31 -73 -74 -73zM-10 -217v106s8 -1 18 -1c45 0 64 12 64 69v562h119v-562c0 -122 -71 -176 -170 -176c-20 0 -31 2 -31 2z" />
    <glyph glyph-name="k" unicode="k" horiz-adv-x="564" 
d="M412 519h150l-201 -219l216 -300h-142l-153 222l-91 -98v-124h-119v750h119v-484z" />
    <glyph glyph-name="l" unicode="l" horiz-adv-x="263" 
d="M191 0h-119v750h119v-750z" />
    <glyph glyph-name="m" unicode="m" horiz-adv-x="925" 
d="M524 298v-298h-119v311c0 68 -27 118 -98 118s-116 -48 -116 -127v-302h-119v519h110v-69c22 41 72 81 155 81c75 0 127 -32 156 -82c40 50 96 82 176 82c125 0 189 -87 189 -205v-326h-119v311c0 67 -26 118 -98 118c-71 0 -117 -47 -117 -131z" />
    <glyph glyph-name="n" unicode="n" horiz-adv-x="603" 
d="M182 519v-69c22 41 75 81 160 81c126 0 193 -84 193 -205v-326h-119v311c0 71 -32 118 -103 118c-75 0 -122 -47 -122 -128v-301h-119v519h110z" />
    <glyph glyph-name="o" unicode="o" horiz-adv-x="615" 
d="M307 -12c-165 0 -269 125 -269 271s104 272 269 272c166 0 270 -126 270 -272s-104 -271 -270 -271zM157 259c0 -100 64 -166 150 -166c87 0 151 66 151 166c0 101 -64 167 -151 167c-86 0 -150 -66 -150 -167z" />
    <glyph glyph-name="p" unicode="p" horiz-adv-x="636" 
d="M191 68v-276h-119v727h110v-74c34 53 95 86 175 86c154 0 241 -123 241 -272c0 -148 -87 -271 -241 -271c-80 0 -137 35 -166 80zM187 259c0 -93 55 -166 146 -166c90 0 146 73 146 166c0 96 -56 169 -146 169c-91 0 -146 -73 -146 -169z" />
    <glyph glyph-name="q" unicode="q" horiz-adv-x="636" 
d="M444 68c-29 -45 -85 -80 -166 -80c-153 0 -240 123 -240 271c0 149 87 272 240 272c81 0 142 -33 175 -86v74h110v-727h-119v276zM449 259c0 95 -55 167 -146 167c-90 0 -146 -72 -146 -167c0 -93 56 -166 146 -166c91 0 146 73 146 166z" />
    <glyph glyph-name="r" unicode="r" horiz-adv-x="366" 
d="M352 523v-111s-14 2 -27 2c-84 0 -134 -44 -134 -144v-270h-119v519h110v-72c19 33 63 77 153 77c5 0 17 -1 17 -1z" />
    <glyph glyph-name="s" unicode="s" horiz-adv-x="502" 
d="M250 -12c-152 0 -214 83 -220 178h115c3 -45 39 -80 112 -80c62 0 96 23 96 59c0 110 -298 12 -298 223c0 87 78 163 206 163c149 0 199 -102 204 -172h-114c-4 37 -32 75 -93 75c-59 0 -89 -24 -89 -62c0 -101 298 -12 298 -222c0 -88 -72 -162 -217 -162z" />
    <glyph glyph-name="t" unicode="t" horiz-adv-x="330" 
d="M305 106v-103s-22 -6 -62 -6c-106 0 -152 55 -152 153v274h-79v95h79v135h119v-135h97v-95h-97v-262c0 -41 17 -61 58 -61c20 0 37 5 37 5z" />
    <glyph glyph-name="u" unicode="u" horiz-adv-x="598" 
d="M407 220v299h119v-519h-110v67c-22 -41 -74 -79 -158 -79c-126 0 -191 83 -191 204v327h119v-311c0 -71 29 -118 101 -118c74 0 120 45 120 130z" />
    <glyph glyph-name="v" unicode="v" horiz-adv-x="545" 
d="M273 141l144 378h123l-212 -519h-112l-211 519h126z" />
    <glyph glyph-name="w" unicode="w" horiz-adv-x="848" 
d="M542 0l-117 356h-1l-118 -356h-113l-181 519h123l116 -372l119 372h110l118 -373l117 373h121l-181 -519h-113z" />
    <glyph glyph-name="x" unicode="x" horiz-adv-x="540" 
d="M534 519l-197 -256l204 -263h-144l-127 174l-128 -174h-143l203 263l-197 256h143l122 -166l121 166h143z" />
    <glyph glyph-name="y" unicode="y" horiz-adv-x="545" 
d="M126 -208l88 212l-209 515h127l141 -376l143 376h124l-296 -727h-118z" />
    <glyph glyph-name="z" unicode="z" horiz-adv-x="539" 
d="M485 422l-286 -319h290v-103h-439v97l285 319h-281v103h431v-97z" />
    <glyph glyph-name="braceleft" unicode="{" horiz-adv-x="342" 
d="M275 -166c-117 0 -166 61 -166 171v181c0 40 -20 55 -51 55h-18v102h18c31 0 51 15 51 55v181c0 110 49 171 166 171c27 0 45 -3 45 -3v-109s-18 3 -38 3c-46 0 -61 -22 -61 -66v-177c0 -50 -16 -85 -47 -106c31 -22 47 -58 47 -107v-176c0 -44 15 -66 61 -66
c20 0 38 3 38 3v-109s-18 -3 -45 -3z" />
    <glyph glyph-name="bar" unicode="|" horiz-adv-x="289" 
d="M203 0h-118v750h118v-750z" />
    <glyph glyph-name="braceright" unicode="}" horiz-adv-x="342" 
d="M67 -166c-27 0 -45 3 -45 3v109s18 -3 37 -3c47 0 62 22 62 66v176c0 49 15 85 46 107c-31 21 -46 56 -46 106v177c0 44 -15 66 -62 66c-19 0 -37 -3 -37 -3v109s18 3 45 3c116 0 165 -61 165 -171v-181c0 -40 20 -55 51 -55h19v-102h-19c-31 0 -51 -15 -51 -55v-181
c0 -110 -49 -171 -165 -171z" />
    <glyph glyph-name="asciitilde" unicode="~" 
d="M390 178c-87 0 -131 46 -199 46c-63 0 -78 -48 -78 -48l-86 53s39 105 165 105c93 0 129 -46 199 -46c63 0 78 47 78 47l85 -53s-38 -104 -164 -104z" />
    <glyph glyph-name="Adieresis" unicode="&#xc4;" horiz-adv-x="683" 
d="M129 0h-128l275 710h129l276 -710h-132l-51 137h-318zM340 560h-2l-118 -313h238zM255 762c-38 0 -66 27 -66 65c0 39 28 66 66 66s66 -27 66 -66c0 -38 -28 -65 -66 -65zM426 762c-39 0 -66 27 -66 65c0 39 27 66 66 66c38 0 66 -27 66 -66c0 -38 -28 -65 -66 -65z" />
    <glyph glyph-name="Aring" unicode="&#xc5;" horiz-adv-x="683" 
d="M129 0h-128l275 710h129l276 -710h-132l-51 137h-318zM340 560h-2l-118 -313h238zM291 860c0 -30 19 -54 52 -54s52 24 52 54s-19 54 -52 54s-52 -24 -52 -54zM223 860c0 66 49 119 120 119c72 0 120 -53 120 -119c0 -67 -48 -120 -120 -120c-71 0 -120 53 -120 120z" />
    <glyph glyph-name="Ccedilla" unicode="&#xc7;" horiz-adv-x="779" 
d="M45 356c0 218 148 369 355 369c176 0 312 -105 341 -274h-129c-24 100 -105 158 -212 158c-142 0 -227 -100 -227 -253s85 -254 227 -254c107 0 188 58 212 158h129c-28 -162 -154 -265 -320 -273l-11 -37s6 3 25 3c54 0 92 -39 92 -93c0 -67 -49 -105 -111 -105
c-65 0 -94 30 -94 30l33 54s21 -20 56 -20c25 0 45 12 45 38c0 22 -13 38 -44 38c-22 0 -35 -13 -35 -13l-39 23l25 83c-188 16 -318 162 -318 368z" />
    <glyph glyph-name="Eacute" unicode="&#xc9;" horiz-adv-x="636" 
d="M583 112v-112h-499v710h499v-112h-378v-182h361v-112h-361v-192h378zM338 941h123l-79 -171h-107z" />
    <glyph glyph-name="Ntilde" unicode="&#xd1;" horiz-adv-x="755" 
d="M203 510v-510h-119v710h123l345 -511v511h119v-710h-124zM448 766c-60 0 -93 38 -138 38c-23 0 -35 -12 -38 -34h-74c4 70 45 120 118 120c60 0 93 -38 139 -38c22 0 33 12 36 34h75c-4 -70 -45 -120 -118 -120z" />
    <glyph glyph-name="Odieresis" unicode="&#xd6;" horiz-adv-x="824" 
d="M173 355c0 -153 100 -254 239 -254s239 101 239 254s-100 254 -239 254s-239 -101 -239 -254zM45 355c0 211 151 370 367 370s367 -159 367 -370s-151 -370 -367 -370s-367 159 -367 370zM328 769c-38 0 -66 27 -66 65c0 39 28 66 66 66s66 -27 66 -66
c0 -38 -28 -65 -66 -65zM499 769c-39 0 -66 27 -66 65c0 39 27 66 66 66c38 0 66 -27 66 -66c0 -38 -28 -65 -66 -65z" />
    <glyph glyph-name="Udieresis" unicode="&#xdc;" horiz-adv-x="739" 
d="M370 -15c-163 0 -295 99 -295 307v418h121v-423c0 -113 57 -190 174 -190s174 77 174 190v423h121v-418c0 -208 -133 -307 -295 -307zM285 762c-38 0 -66 27 -66 65c0 39 28 66 66 66s66 -27 66 -66c0 -38 -28 -65 -66 -65zM456 762c-39 0 -66 27 -66 65
c0 39 27 66 66 66c38 0 66 -27 66 -66c0 -38 -28 -65 -66 -65z" />
    <glyph glyph-name="aacute" unicode="&#xe1;" horiz-adv-x="576" 
d="M392 244l-138 -21c-73 -11 -97 -38 -97 -74c0 -49 35 -68 92 -68c96 0 143 60 143 130v33zM225 -12c-129 0 -182 68 -182 157c0 88 62 145 199 164l150 21v8c0 63 -40 95 -111 95c-65 0 -102 -29 -110 -77h-116c10 91 72 175 229 175c152 0 224 -75 224 -194v-239
c0 -34 6 -77 15 -98h-113c-1 0 -7 26 -7 68c-35 -53 -95 -80 -178 -80zM280 760h123l-79 -171h-107z" />
    <glyph glyph-name="agrave" unicode="&#xe0;" horiz-adv-x="576" 
d="M392 244l-138 -21c-73 -11 -97 -38 -97 -74c0 -49 35 -68 92 -68c96 0 143 60 143 130v33zM225 -12c-129 0 -182 68 -182 157c0 88 62 145 199 164l150 21v8c0 63 -40 95 -111 95c-65 0 -102 -29 -110 -77h-116c10 91 72 175 229 175c152 0 224 -75 224 -194v-239
c0 -34 6 -77 15 -98h-113c-1 0 -7 26 -7 68c-35 -53 -95 -80 -178 -80zM160 760h124l63 -171h-107z" />
    <glyph glyph-name="acircumflex" unicode="&#xe2;" horiz-adv-x="576" 
d="M392 244l-138 -21c-73 -11 -97 -38 -97 -74c0 -49 35 -68 92 -68c96 0 143 60 143 130v33zM225 -12c-129 0 -182 68 -182 157c0 88 62 145 199 164l150 21v8c0 63 -40 95 -111 95c-65 0 -102 -29 -110 -77h-116c10 91 72 175 229 175c152 0 224 -75 224 -194v-239
c0 -34 6 -77 15 -98h-113c-1 0 -7 26 -7 68c-35 -53 -95 -80 -178 -80zM131 669l152 79l153 -79v-96l-153 75l-152 -75v96z" />
    <glyph glyph-name="adieresis" unicode="&#xe4;" horiz-adv-x="576" 
d="M392 244l-138 -21c-73 -11 -97 -38 -97 -74c0 -49 35 -68 92 -68c96 0 143 60 143 130v33zM225 -12c-129 0 -182 68 -182 157c0 88 62 145 199 164l150 21v8c0 63 -40 95 -111 95c-65 0 -102 -29 -110 -77h-116c10 91 72 175 229 175c152 0 224 -75 224 -194v-239
c0 -34 6 -77 15 -98h-113c-1 0 -7 26 -7 68c-35 -53 -95 -80 -178 -80zM194 612c-38 0 -66 27 -66 65c0 39 28 66 66 66s66 -27 66 -66c0 -38 -28 -65 -66 -65zM365 612c-39 0 -66 27 -66 65c0 39 27 66 66 66c38 0 66 -27 66 -66c0 -38 -28 -65 -66 -65z" />
    <glyph glyph-name="atilde" unicode="&#xe3;" horiz-adv-x="576" 
d="M392 244l-138 -21c-73 -11 -97 -38 -97 -74c0 -49 35 -68 92 -68c96 0 143 60 143 130v33zM225 -12c-129 0 -182 68 -182 157c0 88 62 145 199 164l150 21v8c0 63 -40 95 -111 95c-65 0 -102 -29 -110 -77h-116c10 91 72 175 229 175c152 0 224 -75 224 -194v-239
c0 -34 6 -77 15 -98h-113c-1 0 -7 26 -7 68c-35 -53 -95 -80 -178 -80zM346 607c-60 0 -93 38 -138 38c-23 0 -35 -12 -38 -34h-74c4 70 45 120 118 120c60 0 93 -38 139 -38c22 0 33 12 36 34h75c-4 -70 -45 -120 -118 -120z" />
    <glyph glyph-name="aring" unicode="&#xe5;" horiz-adv-x="576" 
d="M392 244l-138 -21c-73 -11 -97 -38 -97 -74c0 -49 35 -68 92 -68c96 0 143 60 143 130v33zM225 -12c-129 0 -182 68 -182 157c0 88 62 145 199 164l150 21v8c0 63 -40 95 -111 95c-65 0 -102 -29 -110 -77h-116c10 91 72 175 229 175c152 0 224 -75 224 -194v-239
c0 -34 6 -77 15 -98h-113c-1 0 -7 26 -7 68c-35 -53 -95 -80 -178 -80zM230 695c0 -30 19 -54 52 -54s52 24 52 54s-19 54 -52 54s-52 -24 -52 -54zM162 695c0 66 49 119 120 119c72 0 120 -53 120 -119c0 -67 -48 -120 -120 -120c-71 0 -120 53 -120 120z" />
    <glyph glyph-name="ccedilla" unicode="&#xe7;" horiz-adv-x="572" 
d="M219 -212l31 50s22 -21 56 -21c25 0 45 14 45 40c0 22 -13 40 -43 40c-22 0 -35 -13 -35 -13l-38 23l24 83c-133 18 -221 131 -221 269c0 151 106 272 259 272c154 0 232 -107 246 -200h-122c-14 56 -61 95 -125 95c-86 0 -140 -69 -140 -167c0 -97 54 -166 140 -166
c64 0 111 39 125 95h122c-14 -89 -85 -189 -226 -199l-11 -41s5 3 24 3c55 0 89 -40 89 -91c0 -61 -45 -102 -107 -102c-66 0 -93 30 -93 30z" />
    <glyph glyph-name="eacute" unicode="&#xe9;" horiz-adv-x="588" 
d="M550 225h-395c9 -82 62 -135 145 -135c55 0 102 28 121 74h120c-31 -103 -123 -176 -244 -176c-157 0 -259 117 -259 272c0 151 104 271 258 271s255 -117 255 -269c0 -19 -1 -37 -1 -37zM296 434c-77 0 -127 -50 -139 -121h276c-10 72 -60 121 -137 121zM300 760h123
l-79 -171h-107z" />
    <glyph glyph-name="egrave" unicode="&#xe8;" horiz-adv-x="588" 
d="M550 225h-395c9 -82 62 -135 145 -135c55 0 102 28 121 74h120c-31 -103 -123 -176 -244 -176c-157 0 -259 117 -259 272c0 151 104 271 258 271s255 -117 255 -269c0 -19 -1 -37 -1 -37zM296 434c-77 0 -127 -50 -139 -121h276c-10 72 -60 121 -137 121zM169 760h124
l63 -171h-107z" />
    <glyph glyph-name="ecircumflex" unicode="&#xea;" horiz-adv-x="588" 
d="M550 225h-395c9 -82 62 -135 145 -135c55 0 102 28 121 74h120c-31 -103 -123 -176 -244 -176c-157 0 -259 117 -259 272c0 151 104 271 258 271s255 -117 255 -269c0 -19 -1 -37 -1 -37zM296 434c-77 0 -127 -50 -139 -121h276c-10 72 -60 121 -137 121zM147 669l152 79
l153 -79v-96l-153 75l-152 -75v96z" />
    <glyph glyph-name="edieresis" unicode="&#xeb;" horiz-adv-x="588" 
d="M550 225h-395c9 -82 62 -135 145 -135c55 0 102 28 121 74h120c-31 -103 -123 -176 -244 -176c-157 0 -259 117 -259 272c0 151 104 271 258 271s255 -117 255 -269c0 -19 -1 -37 -1 -37zM296 434c-77 0 -127 -50 -139 -121h276c-10 72 -60 121 -137 121zM210 612
c-38 0 -66 27 -66 65c0 39 28 66 66 66s66 -27 66 -66c0 -38 -28 -65 -66 -65zM381 612c-39 0 -66 27 -66 65c0 39 27 66 66 66c38 0 66 -27 66 -66c0 -38 -28 -65 -66 -65z" />
    <glyph glyph-name="iacute" unicode="&#xed;" horiz-adv-x="263" 
d="M140 760h123l-79 -171h-107zM191 519v-519h-119v519h119z" />
    <glyph glyph-name="igrave" unicode="&#xec;" horiz-adv-x="263" 
d="M2 760h124l63 -171h-107zM191 519v-519h-119v519h119z" />
    <glyph glyph-name="icircumflex" unicode="&#xee;" horiz-adv-x="263" 
d="M191 519v-519h-119v519h119zM-21 669l152 79l153 -79v-96l-153 75l-152 -75v96z" />
    <glyph glyph-name="idieresis" unicode="&#xef;" horiz-adv-x="263" 
d="M47 612c-38 0 -66 27 -66 65c0 39 28 66 66 66s66 -27 66 -66c0 -38 -28 -65 -66 -65zM218 612c-39 0 -66 27 -66 65c0 39 27 66 66 66c38 0 66 -27 66 -66c0 -38 -28 -65 -66 -65zM191 519v-519h-119v519h119z" />
    <glyph glyph-name="ntilde" unicode="&#xf1;" horiz-adv-x="603" 
d="M182 519v-69c22 41 75 81 160 81c126 0 193 -84 193 -205v-326h-119v311c0 71 -32 118 -103 118c-75 0 -122 -47 -122 -128v-301h-119v519h110zM368 607c-60 0 -93 38 -138 38c-23 0 -35 -12 -38 -34h-74c4 70 45 120 118 120c60 0 93 -38 139 -38c22 0 33 12 36 34h75
c-4 -70 -45 -120 -118 -120z" />
    <glyph glyph-name="oacute" unicode="&#xf3;" horiz-adv-x="615" 
d="M307 -12c-165 0 -269 125 -269 271s104 272 269 272c166 0 270 -126 270 -272s-104 -271 -270 -271zM157 259c0 -100 64 -166 150 -166c87 0 151 66 151 166c0 101 -64 167 -151 167c-86 0 -150 -66 -150 -167zM312 760h123l-79 -171h-107z" />
    <glyph glyph-name="ograve" unicode="&#xf2;" horiz-adv-x="615" 
d="M307 -12c-165 0 -269 125 -269 271s104 272 269 272c166 0 270 -126 270 -272s-104 -271 -270 -271zM157 259c0 -100 64 -166 150 -166c87 0 151 66 151 166c0 101 -64 167 -151 167c-86 0 -150 -66 -150 -167zM176 760h124l63 -171h-107z" />
    <glyph glyph-name="ocircumflex" unicode="&#xf4;" horiz-adv-x="615" 
d="M307 -12c-165 0 -269 125 -269 271s104 272 269 272c166 0 270 -126 270 -272s-104 -271 -270 -271zM157 259c0 -100 64 -166 150 -166c87 0 151 66 151 166c0 101 -64 167 -151 167c-86 0 -150 -66 -150 -167zM158 669l152 79l153 -79v-96l-153 75l-152 -75v96z" />
    <glyph glyph-name="odieresis" unicode="&#xf6;" horiz-adv-x="615" 
d="M307 -12c-165 0 -269 125 -269 271s104 272 269 272c166 0 270 -126 270 -272s-104 -271 -270 -271zM157 259c0 -100 64 -166 150 -166c87 0 151 66 151 166c0 101 -64 167 -151 167c-86 0 -150 -66 -150 -167zM222 612c-38 0 -66 27 -66 65c0 39 28 66 66 66
s66 -27 66 -66c0 -38 -28 -65 -66 -65zM393 612c-39 0 -66 27 -66 65c0 39 27 66 66 66c38 0 66 -27 66 -66c0 -38 -28 -65 -66 -65z" />
    <glyph glyph-name="otilde" unicode="&#xf5;" horiz-adv-x="615" 
d="M307 -12c-165 0 -269 125 -269 271s104 272 269 272c166 0 270 -126 270 -272s-104 -271 -270 -271zM157 259c0 -100 64 -166 150 -166c87 0 151 66 151 166c0 101 -64 167 -151 167c-86 0 -150 -66 -150 -167zM370 607c-60 0 -93 38 -138 38c-23 0 -35 -12 -38 -34h-74
c4 70 45 120 118 120c60 0 93 -38 139 -38c22 0 33 12 36 34h75c-4 -70 -45 -120 -118 -120z" />
    <glyph glyph-name="uacute" unicode="&#xfa;" horiz-adv-x="598" 
d="M407 220v299h119v-519h-110v67c-22 -41 -74 -79 -158 -79c-126 0 -191 83 -191 204v327h119v-311c0 -71 29 -118 101 -118c74 0 120 45 120 130zM300 760h123l-79 -171h-107z" />
    <glyph glyph-name="ugrave" unicode="&#xf9;" horiz-adv-x="598" 
d="M407 220v299h119v-519h-110v67c-22 -41 -74 -79 -158 -79c-126 0 -191 83 -191 204v327h119v-311c0 -71 29 -118 101 -118c74 0 120 45 120 130zM167 760h124l63 -171h-107z" />
    <glyph glyph-name="ucircumflex" unicode="&#xfb;" horiz-adv-x="598" 
d="M407 220v299h119v-519h-110v67c-22 -41 -74 -79 -158 -79c-126 0 -191 83 -191 204v327h119v-311c0 -71 29 -118 101 -118c74 0 120 45 120 130zM141 669l152 79l153 -79v-96l-153 75l-152 -75v96z" />
    <glyph glyph-name="udieresis" unicode="&#xfc;" horiz-adv-x="598" 
d="M407 220v299h119v-519h-110v67c-22 -41 -74 -79 -158 -79c-126 0 -191 83 -191 204v327h119v-311c0 -71 29 -118 101 -118c74 0 120 45 120 130zM208 612c-38 0 -66 27 -66 65c0 39 28 66 66 66s66 -27 66 -66c0 -38 -28 -65 -66 -65zM379 612c-39 0 -66 27 -66 65
c0 39 27 66 66 66c38 0 66 -27 66 -66c0 -38 -28 -65 -66 -65z" />
    <glyph glyph-name="dagger" unicode="&#x2020;" horiz-adv-x="534" 
d="M326 -80h-118v493h-169v106h169v191h118v-191h169v-106h-169v-493z" />
    <glyph glyph-name="degree" unicode="&#xb0;" horiz-adv-x="384" 
d="M24 557c0 93 72 168 168 168c95 0 167 -75 167 -168s-72 -168 -167 -168c-96 0 -168 75 -168 168zM111 557c0 -46 31 -84 81 -84s80 38 80 84s-30 84 -80 84s-81 -38 -81 -84z" />
    <glyph glyph-name="cent" unicode="&#xa2;" 
d="M260 -14v106c-132 16 -219 127 -219 263c0 135 87 247 219 263v105h65v-104c129 -14 196 -113 209 -198h-122c-11 44 -43 76 -87 86v-305c44 10 76 41 87 87h122c-13 -86 -80 -185 -209 -198v-105h-65zM159 355c0 -80 39 -138 101 -153v305c-62 -15 -101 -74 -101 -152z
" />
    <glyph glyph-name="sterling" unicode="&#xa3;" 
d="M505 145l68 -74c-25 -30 -74 -86 -182 -86c-90 0 -142 46 -221 46c-58 0 -96 -49 -96 -49l-68 73s31 48 100 71c37 24 52 57 52 97c0 17 -4 34 -10 51h-102v83h64c-19 41 -38 89 -38 152c0 124 88 216 237 216c142 0 235 -89 235 -226c0 -20 -2 -36 -2 -36h-120
s2 13 2 34c0 68 -37 119 -115 119c-73 0 -116 -45 -116 -113c0 -61 24 -101 44 -146h168v-83h-144c2 -11 4 -23 4 -35c0 -47 -14 -81 -32 -105c65 -9 107 -40 176 -40c51 0 81 30 96 51z" />
    <glyph glyph-name="section" unicode="&#xa7;" horiz-adv-x="563" 
d="M37 290c0 85 58 129 94 145c-30 32 -44 70 -44 121c0 91 73 169 206 169c160 0 201 -105 207 -174h-114c-5 37 -31 76 -99 76c-57 0 -85 -32 -85 -68c0 -31 18 -58 63 -78l96 -43c107 -48 166 -99 166 -192c0 -86 -58 -130 -95 -147c31 -31 45 -69 45 -119
c0 -92 -74 -169 -206 -169c-160 0 -201 105 -207 174h114c5 -37 31 -76 99 -76c57 0 85 32 85 67c0 31 -17 59 -63 79l-96 43c-107 48 -166 99 -166 192zM321 333l-110 47c-33 -11 -65 -36 -65 -80c0 -47 35 -70 98 -97l108 -48c33 10 66 37 66 81c0 47 -33 70 -97 97z" />
    <glyph glyph-name="bullet" unicode="&#x2022;" horiz-adv-x="517" 
d="M111 357c0 82 65 148 147 148s148 -66 148 -148s-66 -147 -148 -147s-147 65 -147 147z" />
    <glyph glyph-name="paragraph" unicode="&#xb6;" horiz-adv-x="664" 
d="M273 -198v461c-162 0 -235 99 -235 223c0 125 86 224 235 224h306v-908h-114v794h-78v-794h-114z" />
    <glyph glyph-name="germandbls" unicode="&#xdf;" horiz-adv-x="617" 
d="M581 154c0 -101 -78 -165 -181 -165c-129 0 -182 83 -184 160h110c1 -33 28 -61 73 -61c39 0 67 22 67 64c0 29 -19 47 -51 69l-18 13c-42 30 -74 61 -74 115c0 35 13 63 34 99l7 11c15 23 24 40 24 66c0 48 -33 86 -92 86c-73 0 -105 -47 -105 -125v-486h-119v469
c0 157 81 250 225 250c125 0 206 -82 206 -187c0 -55 -21 -82 -42 -121l-6 -11c-9 -15 -15 -26 -15 -40c0 -17 7 -26 26 -40l18 -13c53 -38 97 -80 97 -153z" />
    <glyph glyph-name="registered" unicode="&#xae;" horiz-adv-x="571" 
d="M289 197c-154 0 -264 115 -264 264c0 148 110 264 264 264c155 0 264 -116 264 -264c0 -149 -109 -264 -264 -264zM289 266c114 0 189 81 189 195c0 113 -75 195 -189 195s-189 -82 -189 -195c0 -114 75 -195 189 -195zM405 331h-75l-35 75s-12 -1 -14 -1h-24v-74h-66
v259h99c75 0 112 -37 112 -92c0 -35 -15 -63 -44 -79zM297 528h-40v-61h40c23 0 37 11 37 31s-14 30 -37 30z" />
    <glyph glyph-name="copyright" unicode="&#xa9;" horiz-adv-x="781" 
d="M25 356c0 209 155 369 369 369c215 0 369 -160 369 -369s-154 -369 -369 -369c-214 0 -369 160 -369 369zM118 356c0 -166 110 -285 276 -285c167 0 277 119 277 285c0 165 -110 285 -277 285c-166 0 -276 -120 -276 -285zM208 356c0 111 79 196 187 196
c117 0 172 -82 179 -146h-92c-7 35 -37 66 -87 66c-63 0 -97 -47 -97 -116s34 -117 97 -117c50 0 80 31 87 67h92c-7 -64 -62 -146 -179 -146c-108 0 -187 85 -187 196z" />
    <glyph glyph-name="trademark" unicode="&#x2122;" horiz-adv-x="852" 
d="M598 553l122 157h85v-410h-90v277l-115 -146h-4l-116 146v-277h-90v410h85zM345 710v-86h-117v-324h-92v324h-117v86h326z" />
    <glyph glyph-name="acute" unicode="&#xb4;" horiz-adv-x="356" 
d="M147 760h123l-79 -171h-107z" />
    <glyph glyph-name="dieresis" unicode="&#xa8;" horiz-adv-x="423" 
d="M126 612c-38 0 -66 27 -66 65c0 39 28 66 66 66s66 -27 66 -66c0 -38 -28 -65 -66 -65zM297 612c-39 0 -66 27 -66 65c0 39 27 66 66 66c38 0 66 -27 66 -66c0 -38 -28 -65 -66 -65z" />
    <glyph glyph-name="notequal" unicode="&#x2260;" 
d="M552 210v-112h-263l-41 -98h-127l41 98h-132v112h175l42 98h-217v113h262l41 98h127l-41 -98h133v-113h-178l-42 -98h220z" />
    <glyph glyph-name="AE" unicode="&#xc6;" horiz-adv-x="988" 
d="M115 0h-137l391 710h566v-112h-378v-182h361v-112h-361v-192h378v-112h-500v137h-246zM432 588l-186 -341h189v341h-3z" />
    <glyph glyph-name="Oslash" unicode="&#xd8;" horiz-adv-x="824" 
d="M45 355c0 211 151 370 367 370c83 0 156 -24 215 -65l77 88l54 -50l-75 -86c60 -66 96 -155 96 -257c0 -211 -151 -370 -367 -370c-84 0 -158 24 -218 66l-77 -89l-54 48l77 89c-60 65 -95 154 -95 256zM651 355c0 65 -18 120 -50 163l-327 -376c38 -27 85 -41 138 -41
c139 0 239 101 239 254zM173 355c0 -65 17 -120 48 -162l327 376c-38 26 -84 40 -136 40c-139 0 -239 -101 -239 -254z" />
    <glyph glyph-name="plusminus" unicode="&#xb1;" 
d="M235 519h112v-127h205v-113h-205v-127h-112v127h-205v113h205v127zM552 112v-112h-522v112h522z" />
    <glyph glyph-name="lessequal" unicode="&#x2264;" 
d="M210 0l-190 259l190 260h140l-155 -204h368v-111h-368l155 -204h-140z" />
    <glyph glyph-name="greaterequal" unicode="&#x2265;" 
d="M563 259l-190 -259h-140l155 204h-368v111h368l-155 204h140z" />
    <glyph glyph-name="yen" unicode="&#xa5;" 
d="M20 710h128l142 -267h2l140 267h130l-189 -340h112v-86h-133v-69h133v-86h-133v-129h-122v129h-134v86h134v69h-134v86h111z" />
    <glyph glyph-name="mu" unicode="&#xb5;" horiz-adv-x="598" 
d="M407 220v299h119v-519h-110v67c-22 -41 -74 -79 -158 -79c-33 0 -61 7 -82 20c0 -17 2 -61 2 -111v-85h-111v707h119v-311c0 -71 29 -118 101 -118c74 0 120 45 120 130z" />
    <glyph glyph-name="pi" unicode="&#x3c0;" horiz-adv-x="770" 
d="M25 356c0 209 155 369 369 369c215 0 369 -160 369 -369s-154 -369 -369 -369c-214 0 -369 160 -369 369zM118 356c0 -166 110 -285 276 -285c167 0 277 119 277 285c0 165 -110 285 -277 285c-166 0 -276 -120 -276 -285zM256 162v377h169c102 0 150 -61 150 -136
c0 -74 -50 -134 -150 -134h-79v-107h-90zM346 348h74c44 0 65 20 65 55s-20 56 -65 56h-74v-111z" />
    <glyph glyph-name="ordfeminine" unicode="&#xaa;" horiz-adv-x="412" 
d="M165 321c-89 0 -130 47 -130 112c0 75 61 110 161 123l77 10v7c0 33 -22 56 -66 56s-65 -24 -71 -55h-94c5 59 48 135 167 135c111 0 156 -57 156 -143v-165c0 -36 10 -71 10 -71h-89c-4 10 -6 22 -8 37c-24 -29 -62 -46 -113 -46zM128 435c0 -24 16 -41 57 -41
c57 0 88 40 88 92v12l-52 -8c-69 -10 -93 -27 -93 -55z" />
    <glyph glyph-name="ordmasculine" unicode="&#xba;" horiz-adv-x="432" 
d="M216 321c-114 0 -192 87 -192 194s78 194 192 194c113 0 192 -87 192 -194s-79 -194 -192 -194zM216 622c-58 0 -97 -44 -97 -107c0 -62 39 -107 97 -107c56 0 96 45 96 107c0 63 -40 107 -96 107z" />
    <glyph glyph-name="ae" unicode="&#xe6;" horiz-adv-x="942" 
d="M233 -12c-129 0 -190 68 -190 157c0 88 62 145 199 164l150 21v8c0 63 -40 95 -111 95c-65 0 -102 -29 -110 -77h-116c10 91 72 175 229 175c91 0 151 -29 186 -77c44 47 106 77 181 77c153 0 255 -117 255 -269c0 -19 -2 -37 -2 -37h-394c8 -82 61 -135 144 -135
c55 0 102 28 121 74h120c-31 -103 -123 -176 -244 -176c-91 0 -162 40 -207 102c-39 -67 -115 -102 -211 -102zM249 81c96 0 143 58 143 130v33l-138 -21c-73 -11 -97 -38 -97 -74c0 -49 35 -68 92 -68zM650 434c-76 0 -126 -50 -138 -121h275c-10 72 -60 121 -137 121z" />
    <glyph glyph-name="oslash" unicode="&#xf8;" horiz-adv-x="615" 
d="M307 -12c-61 0 -114 17 -156 46l-54 -63l-45 40l54 63c-44 49 -68 114 -68 185c0 146 104 272 269 272c61 0 113 -17 155 -46l57 66l45 -40l-56 -65c44 -50 69 -116 69 -187c0 -146 -104 -271 -270 -271zM458 259c0 38 -10 72 -26 99l-208 -241c23 -16 52 -24 83 -24
c87 0 151 66 151 166zM157 259c0 -38 9 -71 25 -98l208 241c-24 15 -52 24 -83 24c-86 0 -150 -66 -150 -167z" />
    <glyph glyph-name="questiondown" unicode="&#xbf;" horiz-adv-x="525" 
d="M490 8c0 -117 -90 -210 -227 -210c-145 0 -225 92 -225 204c0 167 180 212 180 305c0 16 -2 22 -2 22h116s3 -11 3 -23c0 -152 -176 -189 -176 -298c0 -61 38 -101 104 -101c67 0 107 46 107 109c0 24 -5 45 -5 45h120s5 -20 5 -53zM269 531c46 0 78 -31 78 -77
c0 -45 -32 -77 -78 -77c-45 0 -78 32 -78 77c0 46 33 77 78 77z" />
    <glyph glyph-name="exclamdown" unicode="&#xa1;" horiz-adv-x="270" 
d="M86 322h98l21 -510h-140zM135 530c45 0 78 -31 78 -77c0 -45 -33 -78 -78 -78c-46 0 -78 33 -78 78c0 46 32 77 78 77z" />
    <glyph glyph-name="logicalnot" unicode="&#xac;" 
d="M30 315h522v-278h-113v166h-409v112z" />
    <glyph glyph-name="florin" unicode="&#x192;" 
d="M345 337l-68 -344c-21 -108 -83 -163 -181 -163c-53 0 -93 25 -93 25l40 95s22 -15 50 -15c38 0 60 22 69 71l64 331h-85l19 104h86l30 146c22 108 83 163 181 163c53 0 93 -25 93 -25l-40 -95s-22 15 -50 15c-38 0 -60 -23 -69 -71l-26 -133h85l-19 -104h-86z" />
    <glyph glyph-name="approxequal" unicode="&#x2248;" 
d="M27 319c0 0 39 104 165 104c93 0 129 -46 199 -46c63 0 78 48 78 48l85 -53s-38 -105 -164 -105c-87 0 -131 46 -199 46c-63 0 -78 -47 -78 -47zM27 119c0 0 39 105 165 105c93 0 129 -46 199 -46c63 0 78 47 78 47l85 -53s-38 -104 -164 -104c-87 0 -131 46 -199 46
c-63 0 -78 -48 -78 -48z" />
    <glyph glyph-name="guillemotleft" unicode="&#xab;" horiz-adv-x="559" 
d="M50 259l109 215h118l-110 -215l110 -214h-118zM281 259l109 215h118l-110 -215l110 -214h-118z" />
    <glyph glyph-name="guillemotright" unicode="&#xbb;" horiz-adv-x="559" 
d="M400 474l108 -215l-108 -214h-119l110 214l-110 215h119zM169 474l108 -215l-108 -214h-119l110 214l-110 215h119z" />
    <glyph glyph-name="ellipsis" unicode="&#x2026;" horiz-adv-x="727" 
d="M118 -8c-46 0 -78 31 -78 77c0 45 32 77 78 77c45 0 78 -32 78 -77c0 -46 -33 -77 -78 -77zM364 -8c-46 0 -78 31 -78 77c0 45 32 77 78 77c44 0 77 -32 77 -77c0 -46 -33 -77 -77 -77zM609 -8c-46 0 -78 31 -78 77c0 45 32 77 78 77c45 0 78 -32 78 -77
c0 -46 -33 -77 -78 -77z" />
    <glyph glyph-name="Agrave" unicode="&#xc0;" horiz-adv-x="683" 
d="M129 0h-128l275 710h129l276 -710h-132l-51 137h-318zM340 560h-2l-118 -313h238zM210 941h124l63 -171h-107z" />
    <glyph glyph-name="Atilde" unicode="&#xc3;" horiz-adv-x="683" 
d="M129 0h-128l275 710h129l276 -710h-132l-51 137h-318zM340 560h-2l-118 -313h238zM404 773c-60 0 -93 38 -138 38c-23 0 -35 -12 -38 -34h-74c4 70 45 120 118 120c60 0 93 -38 139 -38c22 0 33 12 36 34h75c-4 -70 -45 -120 -118 -120z" />
    <glyph glyph-name="Otilde" unicode="&#xd5;" horiz-adv-x="824" 
d="M173 355c0 -153 100 -254 239 -254s239 101 239 254s-100 254 -239 254s-239 -101 -239 -254zM45 355c0 211 151 370 367 370s367 -159 367 -370s-151 -370 -367 -370s-367 159 -367 370zM478 773c-60 0 -93 38 -138 38c-23 0 -35 -12 -38 -34h-74c4 70 45 120 118 120
c60 0 93 -38 139 -38c22 0 33 12 36 34h75c-4 -70 -45 -120 -118 -120z" />
    <glyph glyph-name="OE" unicode="&#x152;" horiz-adv-x="1198" 
d="M1146 112v-112h-500v83c-56 -62 -136 -98 -236 -98c-207 0 -365 150 -365 370s158 370 365 370c100 0 180 -37 236 -100v85h500v-112h-378v-182h360v-112h-360v-192h378zM410 609c-141 0 -237 -99 -237 -254s96 -254 237 -254c140 0 236 99 236 254s-96 254 -236 254z
" />
    <glyph glyph-name="oe" unicode="&#x153;" horiz-adv-x="1009" 
d="M307 -12c-165 0 -269 125 -269 271s104 272 269 272c92 0 163 -40 209 -99c44 59 114 99 201 99c154 0 255 -117 255 -269c0 -19 -2 -37 -2 -37h-394c9 -82 62 -135 145 -135c54 0 102 28 120 74h120c-30 -103 -122 -176 -243 -176c-89 0 -158 38 -202 97
c-46 -59 -118 -97 -209 -97zM578 313h275c-9 72 -60 121 -137 121c-76 0 -126 -50 -138 -121zM307 93c88 0 152 66 152 166c0 101 -64 167 -152 167c-86 0 -150 -66 -150 -167c0 -100 64 -166 150 -166z" />
    <glyph glyph-name="endash" unicode="&#x2013;" horiz-adv-x="500" 
d="M500 315v-111h-500v111h500z" />
    <glyph glyph-name="emdash" unicode="&#x2014;" horiz-adv-x="1000" 
d="M1000 315v-111h-1000v111h1000z" />
    <glyph glyph-name="quotedblleft" unicode="&#x201c;" horiz-adv-x="433" 
d="M342 454h-123l86 256h99zM152 454h-123l87 256h98z" />
    <glyph glyph-name="quotedblright" unicode="&#x201d;" horiz-adv-x="433" 
d="M90 710h124l-87 -256h-98zM280 710h124l-87 -256h-98z" />
    <glyph glyph-name="quoteleft" unicode="&#x2018;" horiz-adv-x="243" 
d="M152 454h-123l87 256h98z" />
    <glyph glyph-name="quoteright" unicode="&#x2019;" horiz-adv-x="243" 
d="M90 710h124l-87 -256h-98z" />
    <glyph glyph-name="divide" unicode="&#xf7;" 
d="M291 7c-44 0 -75 30 -75 74c0 43 31 74 75 74c43 0 75 -31 75 -74c0 -44 -32 -74 -75 -74zM291 363c-44 0 -75 31 -75 74c0 44 31 75 75 75c43 0 75 -31 75 -75c0 -43 -32 -74 -75 -74zM552 315v-112h-522v112h522z" />
    <glyph glyph-name="ydieresis" unicode="&#xff;" horiz-adv-x="545" 
d="M126 -208l88 212l-209 515h127l141 -376l143 376h124l-296 -727h-118zM189 612c-38 0 -66 27 -66 65c0 39 28 66 66 66s66 -27 66 -66c0 -38 -28 -65 -66 -65zM360 612c-39 0 -66 27 -66 65c0 39 27 66 66 66c38 0 66 -27 66 -66c0 -38 -28 -65 -66 -65z" />
    <glyph glyph-name="Ydieresis" unicode="&#x178;" horiz-adv-x="630" 
d="M499 710h141l-265 -461v-249h-121v249l-265 461h140l184 -336h2zM229 761c-38 0 -66 27 -66 65c0 39 28 66 66 66s66 -27 66 -66c0 -38 -28 -65 -66 -65zM400 761c-39 0 -66 27 -66 65c0 39 27 66 66 66c38 0 66 -27 66 -66c0 -38 -28 -65 -66 -65z" />
    <glyph glyph-name="fraction" unicode="&#x2044;" horiz-adv-x="399" 
d="M-41 0l392 710h89l-392 -710h-89z" />
    <glyph glyph-name="Euro" unicode="&#x20ac;" 
d="M47 235v86h57c0 4 -1 22 -1 35c0 14 1 30 1 34h-57v86h68c37 161 147 249 304 249c74 0 124 -19 124 -19v-112s-51 22 -124 22c-99 0 -156 -51 -179 -140h196v-86h-210c0 -4 -1 -22 -1 -34c0 -13 0 -24 1 -35h210v-86h-196c23 -90 80 -140 179 -140c73 0 124 22 124 22
v-112s-50 -19 -124 -19c-157 0 -268 87 -303 249h-69z" />
    <glyph glyph-name="guilsinglleft" unicode="&#x2039;" horiz-adv-x="328" 
d="M50 261l109 214h118l-110 -214l110 -215h-118z" />
    <glyph glyph-name="guilsinglright" unicode="&#x203a;" horiz-adv-x="328" 
d="M169 475l108 -214l-108 -215h-119l110 215l-110 214h119z" />
    <glyph glyph-name="daggerdbl" unicode="&#x2021;" horiz-adv-x="534" 
d="M208 710h118v-191h169v-106h-169v-196h169v-106h-169v-191h-118v191h-169v106h169v196h-169v106h169v191z" />
    <glyph glyph-name="periodcentered" unicode="&#xb7;" horiz-adv-x="245" 
d="M123 179c-48 0 -83 33 -83 81c0 47 35 82 83 82c47 0 82 -35 82 -82c0 -48 -35 -81 -82 -81z" />
    <glyph glyph-name="quotesinglbase" unicode="&#x201a;" horiz-adv-x="243" 
d="M90 139h124l-87 -256h-98z" />
    <glyph glyph-name="quotedblbase" unicode="&#x201e;" horiz-adv-x="433" 
d="M90 139h124l-87 -256h-98zM280 139h124l-87 -256h-98z" />
    <glyph glyph-name="perthousand" unicode="&#x2030;" horiz-adv-x="1328" 
d="M237 0l392 710h89l-392 -710h-89zM170 489c0 -104 24 -138 68 -138s68 34 68 138c0 105 -24 140 -68 140s-68 -35 -68 -140zM76 489c0 135 49 227 162 227s162 -92 162 -227c0 -134 -49 -225 -162 -225s-162 91 -162 225zM649 220c0 -105 24 -139 68 -139s68 34 68 139
c0 104 -24 139 -68 139s-68 -35 -68 -139zM555 220c0 134 49 226 162 226s162 -92 162 -226c0 -135 -49 -226 -162 -226s-162 91 -162 226zM1021 220c0 -105 24 -139 69 -139c44 0 68 34 68 139c0 104 -24 139 -68 139c-45 0 -69 -35 -69 -139zM927 220
c0 134 50 226 163 226c112 0 162 -92 162 -226c0 -135 -50 -226 -162 -226c-113 0 -163 91 -163 226z" />
    <glyph glyph-name="Acircumflex" unicode="&#xc2;" horiz-adv-x="683" 
d="M129 0h-128l275 710h129l276 -710h-132l-51 137h-318zM340 560h-2l-118 -313h238zM191 851l152 79l153 -79v-96l-153 75l-152 -75v96z" />
    <glyph glyph-name="Ecircumflex" unicode="&#xca;" horiz-adv-x="636" 
d="M583 112v-112h-499v710h499v-112h-378v-182h361v-112h-361v-192h378zM185 851l152 79l153 -79v-96l-153 75l-152 -75v96z" />
    <glyph glyph-name="Aacute" unicode="&#xc1;" horiz-adv-x="683" 
d="M129 0h-128l275 710h129l276 -710h-132l-51 137h-318zM340 560h-2l-118 -313h238zM354 941h123l-79 -171h-107z" />
    <glyph glyph-name="Edieresis" unicode="&#xcb;" horiz-adv-x="636" 
d="M583 112v-112h-499v710h499v-112h-378v-182h361v-112h-361v-192h378zM247 762c-38 0 -66 27 -66 65c0 39 28 66 66 66s66 -27 66 -66c0 -38 -28 -65 -66 -65zM418 762c-39 0 -66 27 -66 65c0 39 27 66 66 66c38 0 66 -27 66 -66c0 -38 -28 -65 -66 -65z" />
    <glyph glyph-name="Egrave" unicode="&#xc8;" horiz-adv-x="636" 
d="M583 112v-112h-499v710h499v-112h-378v-182h361v-112h-361v-192h378zM208 941h124l63 -171h-107z" />
    <glyph glyph-name="Iacute" unicode="&#xcd;" horiz-adv-x="289" 
d="M205 710v-710h-121v710h121zM154 941h123l-79 -171h-107z" />
    <glyph glyph-name="Icircumflex" unicode="&#xce;" horiz-adv-x="289" 
d="M205 710v-710h-121v710h121zM-8 854l152 79l153 -79v-96l-153 75l-152 -75v96z" />
    <glyph glyph-name="Idieresis" unicode="&#xcf;" horiz-adv-x="289" 
d="M205 710v-710h-121v710h121zM58 762c-38 0 -66 27 -66 65c0 39 28 66 66 66s66 -27 66 -66c0 -38 -28 -65 -66 -65zM229 762c-39 0 -66 27 -66 65c0 39 27 66 66 66c38 0 66 -27 66 -66c0 -38 -28 -65 -66 -65z" />
    <glyph glyph-name="Igrave" unicode="&#xcc;" horiz-adv-x="289" 
d="M205 710v-710h-121v710h121zM12 941h124l63 -171h-107z" />
    <glyph glyph-name="Oacute" unicode="&#xd3;" horiz-adv-x="824" 
d="M173 355c0 -153 100 -254 239 -254s239 101 239 254s-100 254 -239 254s-239 -101 -239 -254zM45 355c0 211 151 370 367 370s367 -159 367 -370s-151 -370 -367 -370s-367 159 -367 370zM416 941h123l-79 -171h-107z" />
    <glyph glyph-name="Ocircumflex" unicode="&#xd4;" horiz-adv-x="824" 
d="M173 355c0 -153 100 -254 239 -254s239 101 239 254s-100 254 -239 254s-239 -101 -239 -254zM45 355c0 211 151 370 367 370s367 -159 367 -370s-151 -370 -367 -370s-367 159 -367 370zM260 857l152 79l153 -79v-96l-153 75l-152 -75v96z" />
    <glyph glyph-name="Ograve" unicode="&#xd2;" horiz-adv-x="824" 
d="M173 355c0 -153 100 -254 239 -254s239 101 239 254s-100 254 -239 254s-239 -101 -239 -254zM45 355c0 211 151 370 367 370s367 -159 367 -370s-151 -370 -367 -370s-367 159 -367 370zM290 941h124l63 -171h-107z" />
    <glyph glyph-name="Uacute" unicode="&#xda;" horiz-adv-x="739" 
d="M370 -15c-163 0 -295 99 -295 307v418h121v-423c0 -113 57 -190 174 -190s174 77 174 190v423h121v-418c0 -208 -133 -307 -295 -307zM372 942h123l-79 -171h-107z" />
    <glyph glyph-name="Ucircumflex" unicode="&#xdb;" horiz-adv-x="739" 
d="M370 -15c-163 0 -295 99 -295 307v418h121v-423c0 -113 57 -190 174 -190s174 77 174 190v423h121v-418c0 -208 -133 -307 -295 -307zM216 854l152 79l153 -79v-96l-153 75l-152 -75v96z" />
    <glyph glyph-name="Ugrave" unicode="&#xd9;" horiz-adv-x="739" 
d="M370 -15c-163 0 -295 99 -295 307v418h121v-423c0 -113 57 -190 174 -190s174 77 174 190v423h121v-418c0 -208 -133 -307 -295 -307zM243 941h124l63 -171h-107z" />
    <glyph glyph-name="dotlessi" unicode="&#x131;" horiz-adv-x="263" 
d="M191 519v-519h-119v519h119z" />
    <glyph glyph-name="circumflex" unicode="&#x2c6;" horiz-adv-x="466" 
d="M82 669l152 79l153 -79v-96l-153 75l-152 -75v96z" />
    <glyph glyph-name="tilde" unicode="&#x2dc;" horiz-adv-x="428" 
d="M280 607c-60 0 -93 38 -138 38c-23 0 -35 -12 -38 -34h-74c4 70 45 120 118 120c60 0 93 -38 139 -38c22 0 33 12 36 34h75c-4 -70 -45 -120 -118 -120z" />
    <glyph glyph-name="macron" unicode="&#xaf;" horiz-adv-x="410" 
d="M383 712v-92h-356v92h356z" />
    <glyph glyph-name="breve" unicode="&#x2d8;" horiz-adv-x="390" 
d="M195 665c45 0 71 25 71 75h85c0 -97 -61 -152 -156 -152s-157 55 -157 152h86c0 -50 26 -75 71 -75z" />
    <glyph glyph-name="dotaccent" unicode="&#x2d9;" horiz-adv-x="263" 
d="M132 604c-44 0 -75 30 -75 73s31 74 75 74c43 0 74 -31 74 -74s-31 -73 -74 -73z" />
    <glyph glyph-name="ring" unicode="&#x2da;" horiz-adv-x="308" 
d="M104 695c0 -30 19 -54 52 -54s52 24 52 54s-19 54 -52 54s-52 -24 -52 -54zM36 695c0 66 49 119 120 119c72 0 120 -53 120 -119c0 -67 -48 -120 -120 -120c-71 0 -120 53 -120 120z" />
    <glyph glyph-name="cedilla" unicode="&#xb8;" horiz-adv-x="258" 
d="M29 -215l33 54s21 -20 56 -20c25 0 45 12 45 38c0 22 -13 38 -44 38c-22 0 -35 -13 -35 -13l-39 23l33 109h59l-20 -64s6 3 25 3c54 0 92 -39 92 -93c0 -67 -49 -105 -111 -105c-65 0 -94 30 -94 30z" />
    <glyph glyph-name="hungarumlaut" unicode="&#x2dd;" horiz-adv-x="443" 
d="M104 750h125l-89 -171h-99zM277 750h125l-89 -171h-99z" />
    <glyph glyph-name="ogonek" unicode="&#x2db;" horiz-adv-x="258" 
d="M192 -119l29 -62c-13 -9 -40 -25 -78 -25c-67 0 -106 49 -106 111c0 51 21 111 97 153l49 -54c-45 -26 -63 -59 -63 -94c0 -23 13 -42 39 -42c16 0 28 10 33 13z" />
    <glyph glyph-name="caron" unicode="&#x2c7;" horiz-adv-x="466" 
d="M234 570l-152 79v96l152 -75l153 75v-96z" />
    <glyph glyph-name="AEacute" unicode="&#x1fc;" horiz-adv-x="987" 
d="M115 0h-137l391 710h566v-112h-378v-182h361v-112h-361v-192h378v-112h-500v137h-246zM432 588l-186 -341h189v341h-3zM570 941h123l-79 -171h-107z" />
    <glyph glyph-name="Cacute" unicode="&#x106;" horiz-adv-x="779" 
d="M45 356c0 218 148 369 355 369c176 0 312 -105 341 -274h-129c-24 100 -105 158 -212 158c-142 0 -227 -100 -227 -253s85 -254 227 -254c107 0 188 58 212 158h129c-29 -169 -165 -274 -341 -274c-207 0 -355 151 -355 370zM401 941h123l-79 -171h-107z" />
    <glyph glyph-name="Ccircumflex" unicode="&#x108;" horiz-adv-x="779" 
d="M45 356c0 218 148 369 355 369c176 0 312 -105 341 -274h-129c-24 100 -105 158 -212 158c-142 0 -227 -100 -227 -253s85 -254 227 -254c107 0 188 58 212 158h129c-29 -169 -165 -274 -341 -274c-207 0 -355 151 -355 370zM240 851l152 79l153 -79v-96l-153 75
l-152 -75v96z" />
    <glyph glyph-name="Ccaron" unicode="&#x10c;" horiz-adv-x="779" 
d="M45 356c0 218 148 369 355 369c176 0 312 -105 341 -274h-129c-24 100 -105 158 -212 158c-142 0 -227 -100 -227 -253s85 -254 227 -254c107 0 188 58 212 158h129c-29 -169 -165 -274 -341 -274c-207 0 -355 151 -355 370zM400 755l-152 79v96l152 -75l153 75v-96z" />
    <glyph glyph-name="Cdotaccent" unicode="&#x10a;" horiz-adv-x="779" 
d="M45 356c0 218 148 369 355 369c176 0 312 -105 341 -274h-129c-24 100 -105 158 -212 158c-142 0 -227 -100 -227 -253s85 -254 227 -254c107 0 188 58 212 158h129c-29 -169 -165 -274 -341 -274c-207 0 -355 151 -355 370zM399 765c-44 0 -75 30 -75 73s31 74 75 74
c43 0 74 -31 74 -74s-31 -73 -74 -73z" />
    <glyph glyph-name="Dcaron" unicode="&#x10e;" horiz-adv-x="752" 
d="M325 0h-241v710h241c245 0 381 -146 381 -355s-136 -355 -381 -355zM578 355c0 147 -82 243 -257 243h-116v-486h116c175 0 257 96 257 243zM336 755l-152 79v96l152 -75l153 75v-96z" />
    <glyph glyph-name="Dcroat" unicode="&#x110;" horiz-adv-x="752" 
d="M325 0h-241v299h-74v112h74v299h241c245 0 381 -146 381 -355s-136 -355 -381 -355zM578 355c0 147 -82 240 -257 240h-116v-184h177v-112h-177v-184h116c175 0 257 93 257 240z" />
    <glyph glyph-name="Ecaron" unicode="&#x11a;" horiz-adv-x="636" 
d="M583 112v-112h-499v710h499v-112h-378v-182h361v-112h-361v-192h378zM331 755l-152 79v96l152 -75l153 75v-96z" />
    <glyph glyph-name="Emacron" unicode="&#x112;" horiz-adv-x="636" 
d="M583 112v-112h-499v710h499v-112h-378v-182h361v-112h-361v-192h378zM512 862v-92h-356v92h356z" />
    <glyph glyph-name="Ebreve" unicode="&#x114;" horiz-adv-x="636" 
d="M583 112v-112h-499v710h499v-112h-378v-182h361v-112h-361v-192h378zM330 831c45 0 71 25 71 75h85c0 -97 -61 -152 -156 -152s-157 55 -157 152h86c0 -50 26 -75 71 -75z" />
    <glyph glyph-name="Edotaccent" unicode="&#x116;" horiz-adv-x="636" 
d="M583 112v-112h-499v710h499v-112h-378v-182h361v-112h-361v-192h378zM337 766c-44 0 -75 30 -75 73s31 74 75 74c43 0 74 -31 74 -74s-31 -73 -74 -73z" />
    <glyph glyph-name="Eogonek" unicode="&#x118;" horiz-adv-x="636" 
d="M542 -119l29 -62c-13 -9 -40 -25 -78 -25c-67 0 -106 49 -106 111c0 31 7 64 29 95h-332v710h499v-112h-378v-182h361v-112h-361v-192h378v-112h-57c-40 -25 -56 -57 -56 -90c0 -23 13 -42 39 -42c16 0 28 10 33 13z" />
    <glyph glyph-name="Gcircumflex" unicode="&#x11c;" horiz-adv-x="810" 
d="M740 388v-388h-109v102c-44 -69 -128 -114 -238 -114c-203 0 -348 149 -348 368c0 218 148 369 355 369c172 0 305 -99 338 -261h-131c-26 93 -105 145 -207 145c-142 0 -227 -100 -227 -253s87 -259 227 -259c121 0 208 64 223 181h-190v110h307zM248 854l152 79
l153 -79v-96l-153 75l-152 -75v96z" />
    <glyph glyph-name="Gbreve" unicode="&#x11e;" horiz-adv-x="810" 
d="M740 388v-388h-109v102c-44 -69 -128 -114 -238 -114c-203 0 -348 149 -348 368c0 218 148 369 355 369c172 0 305 -99 338 -261h-131c-26 93 -105 145 -207 145c-142 0 -227 -100 -227 -253s87 -259 227 -259c121 0 208 64 223 181h-190v110h307zM399 832
c45 0 71 25 71 75h85c0 -97 -61 -152 -156 -152s-157 55 -157 152h86c0 -50 26 -75 71 -75z" />
    <glyph glyph-name="Gdotaccent" unicode="&#x120;" horiz-adv-x="810" 
d="M740 388v-388h-109v102c-44 -69 -128 -114 -238 -114c-203 0 -348 149 -348 368c0 218 148 369 355 369c172 0 305 -99 338 -261h-131c-26 93 -105 145 -207 145c-142 0 -227 -100 -227 -253s87 -259 227 -259c121 0 208 64 223 181h-190v110h307zM402 765
c-44 0 -75 30 -75 73s31 74 75 74c43 0 74 -31 74 -74s-31 -73 -74 -73z" />
    <glyph glyph-name="Gcommaaccent" unicode="&#x122;" horiz-adv-x="810" 
d="M740 388v-388h-109v102c-44 -69 -128 -114 -238 -114c-203 0 -348 149 -348 368c0 218 148 369 355 369c172 0 305 -99 338 -261h-131c-26 93 -105 145 -207 145c-142 0 -227 -100 -227 -253s87 -259 227 -259c121 0 208 64 223 181h-190v110h307zM350 -50l101 6
s7 -19 7 -53c0 -117 -102 -164 -102 -164l-59 70s62 29 62 92c0 28 -9 49 -9 49z" />
    <glyph glyph-name="Hcircumflex" unicode="&#x124;" horiz-adv-x="747" 
d="M663 710v-710h-121v304h-337v-304h-121v710h121v-294h337v294h121zM220 851l152 79l153 -79v-96l-153 75l-152 -75v96z" />
    <glyph glyph-name="Hbar" unicode="&#x126;" horiz-adv-x="747" 
d="M663 710v-111h60v-93h-60v-506h-121v304h-337v-304h-121v506h-60v93h60v111h121v-111h337v111h121zM205 416h337v90h-337v-90z" />
    <glyph glyph-name="Itilde" unicode="&#x128;" horiz-adv-x="289" 
d="M205 710v-710h-121v710h121zM211 766c-60 0 -93 38 -138 38c-23 0 -35 -12 -38 -34h-74c4 70 45 120 118 120c60 0 93 -38 139 -38c22 0 33 12 36 34h75c-4 -70 -45 -120 -118 -120z" />
    <glyph glyph-name="Imacron" unicode="&#x12a;" horiz-adv-x="289" 
d="M205 710v-710h-121v710h121zM323 862v-92h-356v92h356z" />
    <glyph glyph-name="Ibreve" unicode="&#x12c;" horiz-adv-x="289" 
d="M205 710v-710h-121v710h121zM145 832c45 0 71 25 71 75h85c0 -97 -61 -152 -156 -152s-157 55 -157 152h86c0 -50 26 -75 71 -75z" />
    <glyph glyph-name="Idotaccent" unicode="&#x130;" horiz-adv-x="289" 
d="M205 710v-710h-121v710h121zM145 765c-44 0 -75 30 -75 73s31 74 75 74c43 0 74 -31 74 -74s-31 -73 -74 -73z" />
    <glyph glyph-name="Iogonek" unicode="&#x12e;" horiz-adv-x="289" 
d="M176 -119l29 -62c-13 -9 -40 -25 -78 -25c-67 0 -106 49 -106 111c0 43 14 91 63 130v675h121v-710h-45c-40 -25 -56 -57 -56 -90c0 -23 13 -42 39 -42c16 0 28 10 33 13z" />
    <glyph glyph-name="Jcircumflex" unicode="&#x134;" horiz-adv-x="584" 
d="M390 226v484h121v-480c0 -147 -93 -243 -241 -243c-144 0 -240 85 -240 229c0 28 3 46 3 46h122s-3 -17 -3 -46c0 -73 44 -121 118 -121c78 0 120 50 120 131zM299 853l152 79l153 -79v-96l-153 75l-152 -75v96z" />
    <glyph glyph-name="Kcommaaccent" unicode="&#x136;" horiz-adv-x="696" 
d="M707 0h-151l-227 324l-124 -129v-195h-121v710h121v-362s59 60 329 362h159l-280 -295zM314 -50l101 6s7 -19 7 -53c0 -117 -102 -164 -102 -164l-59 70s62 29 62 92c0 28 -9 49 -9 49z" />
    <glyph glyph-name="Lacute" unicode="&#x139;" horiz-adv-x="545" 
d="M534 112v-112h-450v710h121v-598h329zM151 941h123l-79 -171h-107z" />
    <glyph glyph-name="Lcaron" unicode="&#x13d;" horiz-adv-x="545" 
d="M534 112v-112h-450v710h121v-598h329zM333 709l101 6s7 -19 7 -53c0 -117 -102 -164 -102 -164l-59 70s62 29 62 92c0 28 -9 49 -9 49z" />
    <glyph glyph-name="Lcommaaccent" unicode="&#x13b;" horiz-adv-x="545" 
d="M534 112v-112h-450v710h121v-598h329zM270 -50l101 6s7 -19 7 -53c0 -117 -102 -164 -102 -164l-59 70s62 29 62 92c0 28 -9 49 -9 49z" />
    <glyph glyph-name="Nacute" unicode="&#x143;" horiz-adv-x="755" 
d="M203 510v-510h-119v710h123l345 -511v511h119v-710h-124zM387 941h123l-79 -171h-107z" />
    <glyph glyph-name="Ncaron" unicode="&#x147;" horiz-adv-x="755" 
d="M203 510v-510h-119v710h123l345 -511v511h119v-710h-124zM377 754l-152 79v96l152 -75l153 75v-96z" />
    <glyph glyph-name="Ncommaaccent" unicode="&#x145;" horiz-adv-x="755" 
d="M203 510v-510h-119v710h123l345 -511v511h119v-710h-124zM331 -50l101 6s7 -19 7 -53c0 -117 -102 -164 -102 -164l-59 70s62 29 62 92c0 28 -9 49 -9 49z" />
    <glyph glyph-name="Omacron" unicode="&#x14c;" horiz-adv-x="824" 
d="M173 355c0 -153 100 -254 239 -254s239 101 239 254s-100 254 -239 254s-239 -101 -239 -254zM45 355c0 211 151 370 367 370s367 -159 367 -370s-151 -370 -367 -370s-367 159 -367 370zM589 862v-92h-356v92h356z" />
    <glyph glyph-name="Obreve" unicode="&#x14e;" horiz-adv-x="824" 
d="M173 355c0 -153 100 -254 239 -254s239 101 239 254s-100 254 -239 254s-239 -101 -239 -254zM45 355c0 211 151 370 367 370s367 -159 367 -370s-151 -370 -367 -370s-367 159 -367 370zM412 831c45 0 71 25 71 75h85c0 -97 -61 -152 -156 -152s-157 55 -157 152h86
c0 -50 26 -75 71 -75z" />
    <glyph glyph-name="Ohungarumlaut" unicode="&#x150;" horiz-adv-x="824" 
d="M173 355c0 -153 100 -254 239 -254s239 101 239 254s-100 254 -239 254s-239 -101 -239 -254zM45 355c0 211 151 370 367 370s367 -159 367 -370s-151 -370 -367 -370s-367 159 -367 370zM332 942h125l-89 -171h-99zM505 942h125l-89 -171h-99z" />
    <glyph glyph-name="Oslashacute" unicode="&#x1fe;" horiz-adv-x="824" 
d="M419 942h123l-79 -171h-107zM45 355c0 211 151 370 367 370c83 0 156 -24 215 -65l77 88l54 -50l-75 -86c60 -66 96 -155 96 -257c0 -211 -151 -370 -367 -370c-84 0 -158 24 -218 66l-77 -89l-54 48l77 89c-60 65 -95 154 -95 256zM651 355c0 65 -18 120 -50 163
l-327 -376c38 -27 85 -41 138 -41c139 0 239 101 239 254zM173 355c0 -65 17 -120 48 -162l327 376c-38 26 -84 40 -136 40c-139 0 -239 -101 -239 -254z" />
    <glyph glyph-name="Racute" unicode="&#x154;" horiz-adv-x="673" 
d="M654 0h-142l-144 280h-163v-280h-121v710h312c157 0 234 -91 234 -215c0 -94 -45 -170 -139 -200zM508 495c0 61 -36 103 -111 103h-192v-206h192c75 0 111 42 111 103zM336 941h123l-79 -171h-107z" />
    <glyph glyph-name="Rcaron" unicode="&#x158;" horiz-adv-x="673" 
d="M654 0h-142l-144 280h-163v-280h-121v710h312c157 0 234 -91 234 -215c0 -94 -45 -170 -139 -200zM508 495c0 61 -36 103 -111 103h-192v-206h192c75 0 111 42 111 103zM334 755l-152 79v96l152 -75l153 75v-96z" />
    <glyph glyph-name="Rcommaaccent" unicode="&#x156;" horiz-adv-x="673" 
d="M654 0h-142l-144 280h-163v-280h-121v710h312c157 0 234 -91 234 -215c0 -94 -45 -170 -139 -200zM508 495c0 61 -36 103 -111 103h-192v-206h192c75 0 111 42 111 103zM303 -50l101 6s7 -19 7 -53c0 -117 -102 -164 -102 -164l-59 70s62 29 62 92c0 28 -9 49 -9 49z" />
    <glyph glyph-name="Sacute" unicode="&#x15a;" horiz-adv-x="636" 
d="M312 95c97 0 153 35 153 99c0 173 -397 37 -397 321c0 113 96 210 254 210c167 0 255 -102 258 -235h-119c-1 70 -48 126 -139 126c-83 0 -134 -35 -134 -98c0 -156 400 -35 400 -319c0 -129 -112 -213 -282 -213c-189 0 -262 120 -266 236h120c5 -76 56 -127 152 -127z
M327 942h123l-79 -171h-107z" />
    <glyph glyph-name="Scircumflex" unicode="&#x15c;" horiz-adv-x="636" 
d="M312 95c97 0 153 35 153 99c0 173 -397 37 -397 321c0 113 96 210 254 210c167 0 255 -102 258 -235h-119c-1 70 -48 126 -139 126c-83 0 -134 -35 -134 -98c0 -156 400 -35 400 -319c0 -129 -112 -213 -282 -213c-189 0 -262 120 -266 236h120c5 -76 56 -127 152 -127z
M173 851l152 79l153 -79v-96l-153 75l-152 -75v96z" />
    <glyph glyph-name="Scedilla" unicode="&#x15e;" horiz-adv-x="636" 
d="M241 -215l33 54s21 -20 56 -20c25 0 45 12 45 38c0 22 -13 38 -44 38c-22 0 -35 -13 -35 -13l-39 23l25 82c-171 10 -238 124 -242 235h120c5 -76 56 -127 152 -127c97 0 153 35 153 99c0 173 -397 37 -397 321c0 113 96 210 254 210c167 0 255 -102 258 -235h-119
c-1 70 -48 126 -139 126c-83 0 -134 -35 -134 -98c0 -156 400 -35 400 -319c0 -120 -97 -201 -248 -211l-11 -38s6 3 25 3c54 0 92 -39 92 -93c0 -67 -49 -105 -111 -105c-65 0 -94 30 -94 30z" />
    <glyph glyph-name="Scommaaccent" unicode="&#x218;" horiz-adv-x="636" 
d="M312 95c97 0 153 35 153 99c0 173 -397 37 -397 321c0 113 96 210 254 210c167 0 255 -102 258 -235h-119c-1 70 -48 126 -139 126c-83 0 -134 -35 -134 -98c0 -156 400 -35 400 -319c0 -129 -112 -213 -282 -213c-189 0 -262 120 -266 236h120c5 -76 56 -127 152 -127z
M276 -50l101 6s7 -19 7 -53c0 -117 -102 -164 -102 -164l-59 70s62 29 62 92c0 28 -9 49 -9 49z" />
    <glyph glyph-name="Tcaron" unicode="&#x164;" horiz-adv-x="546" 
d="M539 710v-115h-206v-595h-121v595h-206v115h533zM272 755l-152 79v96l152 -75l153 75v-96z" />
    <glyph glyph-name="Tbar" unicode="&#x166;" horiz-adv-x="546" 
d="M539 710v-115h-206v-190h122v-93h-122v-312h-121v312h-122v93h122v190h-206v115h533z" />
    <glyph glyph-name="Utilde" unicode="&#x168;" horiz-adv-x="739" 
d="M370 -15c-163 0 -295 99 -295 307v418h121v-423c0 -113 57 -190 174 -190s174 77 174 190v423h121v-418c0 -208 -133 -307 -295 -307zM435 766c-60 0 -93 38 -138 38c-23 0 -35 -12 -38 -34h-74c4 70 45 120 118 120c60 0 93 -38 139 -38c22 0 33 12 36 34h75
c-4 -70 -45 -120 -118 -120z" />
    <glyph glyph-name="Umacron" unicode="&#x16a;" horiz-adv-x="739" 
d="M370 -15c-163 0 -295 99 -295 307v418h121v-423c0 -113 57 -190 174 -190s174 77 174 190v423h121v-418c0 -208 -133 -307 -295 -307zM547 862v-92h-356v92h356z" />
    <glyph glyph-name="Ubreve" unicode="&#x16c;" horiz-adv-x="739" 
d="M370 -15c-163 0 -295 99 -295 307v418h121v-423c0 -113 57 -190 174 -190s174 77 174 190v423h121v-418c0 -208 -133 -307 -295 -307zM370 832c45 0 71 25 71 75h85c0 -97 -61 -152 -156 -152s-157 55 -157 152h86c0 -50 26 -75 71 -75z" />
    <glyph glyph-name="Uring" unicode="&#x16e;" horiz-adv-x="739" 
d="M370 -15c-163 0 -295 99 -295 307v418h121v-423c0 -113 57 -190 174 -190s174 77 174 190v423h121v-418c0 -208 -133 -307 -295 -307zM319 860c0 -30 19 -54 52 -54s52 24 52 54s-19 54 -52 54s-52 -24 -52 -54zM251 860c0 66 49 119 120 119c72 0 120 -53 120 -119
c0 -67 -48 -120 -120 -120c-71 0 -120 53 -120 120z" />
    <glyph glyph-name="Uhungarumlaut" unicode="&#x170;" horiz-adv-x="739" 
d="M370 -15c-163 0 -295 99 -295 307v418h121v-423c0 -113 57 -190 174 -190s174 77 174 190v423h121v-418c0 -208 -133 -307 -295 -307zM286 941h125l-89 -171h-99zM459 941h125l-89 -171h-99z" />
    <glyph glyph-name="Uogonek" unicode="&#x172;" horiz-adv-x="739" 
d="M443 -122l29 -62c-13 -9 -40 -25 -78 -25c-67 0 -106 49 -106 111c0 28 6 59 24 88c-135 21 -237 119 -237 302v418h121v-423c0 -113 57 -190 174 -190s174 77 174 190v423h121v-418c0 -189 -110 -288 -252 -304c-30 -24 -42 -52 -42 -81c0 -23 13 -42 39 -42
c16 0 28 10 33 13z" />
    <glyph glyph-name="Wgrave" unicode="&#x1e80;" horiz-adv-x="1041" 
d="M519 539l-159 -539h-130l-221 710h137l149 -539h2l158 539h133l158 -539h2l150 539h133l-221 -710h-130l-159 539h-2zM390 941h124l63 -171h-107z" />
    <glyph glyph-name="Wacute" unicode="&#x1e82;" horiz-adv-x="1041" 
d="M519 539l-159 -539h-130l-221 710h137l149 -539h2l158 539h133l158 -539h2l150 539h133l-221 -710h-130l-159 539h-2zM532 941h123l-79 -171h-107z" />
    <glyph glyph-name="Wcircumflex" unicode="&#x174;" horiz-adv-x="1041" 
d="M519 539l-159 -539h-130l-221 710h137l149 -539h2l158 539h133l158 -539h2l150 539h133l-221 -710h-130l-159 539h-2zM368 851l152 79l153 -79v-96l-153 75l-152 -75v96z" />
    <glyph glyph-name="Wdieresis" unicode="&#x1e84;" horiz-adv-x="1041" 
d="M519 539l-159 -539h-130l-221 710h137l149 -539h2l158 539h133l158 -539h2l150 539h133l-221 -710h-130l-159 539h-2zM435 762c-38 0 -66 27 -66 65c0 39 28 66 66 66s66 -27 66 -66c0 -38 -28 -65 -66 -65zM606 762c-39 0 -66 27 -66 65c0 39 27 66 66 66
c38 0 66 -27 66 -66c0 -38 -28 -65 -66 -65z" />
    <glyph glyph-name="Ygrave" unicode="&#x1ef2;" horiz-adv-x="630" 
d="M499 710h141l-265 -461v-249h-121v249l-265 461h140l184 -336h2zM189 941h124l63 -171h-107z" />
    <glyph glyph-name="Ycircumflex" unicode="&#x176;" horiz-adv-x="630" 
d="M499 710h141l-265 -461v-249h-121v249l-265 461h140l184 -336h2zM163 851l152 79l153 -79v-96l-153 75l-152 -75v96z" />
    <glyph glyph-name="Zacute" unicode="&#x179;" horiz-adv-x="665" 
d="M614 710v-106l-409 -492h413v-112h-571v106l409 492h-405v112h563zM332 941h123l-79 -171h-107z" />
    <glyph glyph-name="Zdotaccent" unicode="&#x17b;" horiz-adv-x="665" 
d="M614 710v-106l-409 -492h413v-112h-571v106l409 492h-405v112h563zM333 765c-44 0 -75 30 -75 73s31 74 75 74c43 0 74 -31 74 -74s-31 -73 -74 -73z" />
    <glyph glyph-name="Eng" unicode="&#x14a;" horiz-adv-x="755" 
d="M552 2l-349 508v-510h-119v710h123l345 -501v501h119v-671c0 -130 -58 -233 -194 -259l-42 94c75 17 115 49 117 128z" />
    <glyph glyph-name="amacron" unicode="&#x101;" horiz-adv-x="580" 
d="M392 244l-138 -21c-73 -11 -97 -38 -97 -74c0 -49 35 -68 92 -68c96 0 143 60 143 130v33zM225 -12c-129 0 -182 68 -182 157c0 88 62 145 199 164l150 21v8c0 63 -40 95 -111 95c-65 0 -102 -29 -110 -77h-116c10 91 72 175 229 175c152 0 224 -75 224 -194v-239
c0 -34 6 -77 15 -98h-113c-1 0 -7 26 -7 68c-35 -53 -95 -80 -178 -80zM462 712v-92h-356v92h356z" />
    <glyph glyph-name="abreve" unicode="&#x103;" horiz-adv-x="580" 
d="M392 244l-138 -21c-73 -11 -97 -38 -97 -74c0 -49 35 -68 92 -68c96 0 143 60 143 130v33zM225 -12c-129 0 -182 68 -182 157c0 88 62 145 199 164l150 21v8c0 63 -40 95 -111 95c-65 0 -102 -29 -110 -77h-116c10 91 72 175 229 175c152 0 224 -75 224 -194v-239
c0 -34 6 -77 15 -98h-113c-1 0 -7 26 -7 68c-35 -53 -95 -80 -178 -80zM283 665c45 0 71 25 71 75h85c0 -97 -61 -152 -156 -152s-157 55 -157 152h86c0 -50 26 -75 71 -75z" />
    <glyph glyph-name="aringacute" unicode="&#x1fb;" horiz-adv-x="580" 
d="M225 -12c-129 0 -182 68 -182 157c0 88 62 145 199 164l150 21v8c0 63 -40 95 -111 95c-65 0 -102 -29 -110 -77h-116c10 91 72 175 229 175c152 0 224 -75 224 -194v-239c0 -34 6 -77 15 -98h-113s-7 26 -7 68c-35 -53 -95 -80 -178 -80zM168 695c0 54 32 99 82 113
l47 126h101l-60 -130c43 -18 71 -59 71 -109c0 -67 -49 -120 -120 -120c-72 0 -121 53 -121 120zM392 244l-138 -21c-73 -11 -97 -38 -97 -74c0 -49 35 -68 92 -68c96 0 143 60 143 130v33zM237 695c0 -30 19 -54 52 -54c32 0 52 24 52 54s-20 54 -52 54
c-33 0 -52 -24 -52 -54z" />
    <glyph glyph-name="aogonek" unicode="&#x105;" horiz-adv-x="580" 
d="M518 -119l29 -62c-13 -9 -40 -25 -78 -25c-67 0 -106 49 -106 111c0 36 10 77 43 112c-2 12 -3 28 -3 51c-35 -53 -95 -80 -178 -80c-129 0 -182 68 -182 157c0 88 62 145 199 164l150 21v8c0 63 -40 95 -111 95c-65 0 -102 -29 -110 -77h-116c10 91 72 175 229 175
c152 0 224 -75 224 -194v-239c0 -34 6 -77 15 -98h-21c-40 -25 -56 -57 -56 -90c0 -23 13 -42 39 -42c16 0 28 10 33 13zM392 244l-138 -21c-73 -11 -97 -38 -97 -74c0 -49 35 -68 92 -68c96 0 143 60 143 130v33z" />
    <glyph glyph-name="aeacute" unicode="&#x1fd;" horiz-adv-x="942" 
d="M233 -12c-129 0 -190 68 -190 157c0 88 62 145 199 164l150 21v8c0 63 -40 95 -111 95c-65 0 -102 -29 -110 -77h-116c10 91 72 175 229 175c91 0 151 -29 186 -77c44 47 106 77 181 77c153 0 255 -117 255 -269c0 -19 -2 -37 -2 -37h-394c8 -82 61 -135 144 -135
c55 0 102 28 121 74h120c-31 -103 -123 -176 -244 -176c-91 0 -162 40 -207 102c-39 -67 -115 -102 -211 -102zM249 81c96 0 143 58 143 130v33l-138 -21c-73 -11 -97 -38 -97 -74c0 -49 35 -68 92 -68zM650 434c-76 0 -126 -50 -138 -121h275c-10 72 -60 121 -137 121z
M476 760h123l-79 -171h-107z" />
    <glyph glyph-name="cacute" unicode="&#x107;" horiz-adv-x="572" 
d="M38 259c0 151 106 272 259 272c154 0 232 -107 246 -200h-122c-14 56 -61 95 -125 95c-85 0 -139 -69 -139 -167c0 -97 54 -166 139 -166c64 0 111 39 125 95h122c-14 -93 -92 -200 -246 -200c-153 0 -259 121 -259 271zM295 760h123l-79 -171h-107z" />
    <glyph glyph-name="ccircumflex" unicode="&#x109;" horiz-adv-x="572" 
d="M38 259c0 151 106 272 259 272c154 0 232 -107 246 -200h-122c-14 56 -61 95 -125 95c-85 0 -139 -69 -139 -167c0 -97 54 -166 139 -166c64 0 111 39 125 95h122c-14 -93 -92 -200 -246 -200c-153 0 -259 121 -259 271zM146 669l152 79l153 -79v-96l-153 75l-152 -75v96
z" />
    <glyph glyph-name="ccaron" unicode="&#x10d;" horiz-adv-x="572" 
d="M38 259c0 151 106 272 259 272c154 0 232 -107 246 -200h-122c-14 56 -61 95 -125 95c-85 0 -139 -69 -139 -167c0 -97 54 -166 139 -166c64 0 111 39 125 95h122c-14 -93 -92 -200 -246 -200c-153 0 -259 121 -259 271zM296 570l-152 79v96l152 -75l153 75v-96z" />
    <glyph glyph-name="cdotaccent" unicode="&#x10b;" horiz-adv-x="572" 
d="M38 259c0 151 106 272 259 272c154 0 232 -107 246 -200h-122c-14 56 -61 95 -125 95c-85 0 -139 -69 -139 -167c0 -97 54 -166 139 -166c64 0 111 39 125 95h122c-14 -93 -92 -200 -246 -200c-153 0 -259 121 -259 271zM295 604c-44 0 -75 30 -75 73s31 74 75 74
c43 0 74 -31 74 -74s-31 -73 -74 -73z" />
    <glyph glyph-name="dcaron" unicode="&#x10f;" horiz-adv-x="636" 
d="M444 451v299h119v-750h-110v74c-33 -54 -94 -86 -175 -86c-153 0 -240 123 -240 271c0 149 87 272 240 272c81 0 137 -36 166 -80zM449 259c0 95 -55 167 -146 167c-90 0 -146 -72 -146 -167c0 -93 56 -166 146 -166c91 0 146 73 146 166zM648 746l101 6s7 -19 7 -53
c0 -117 -102 -164 -102 -164l-59 70s62 29 62 92c0 28 -9 49 -9 49z" />
    <glyph glyph-name="dcroat" unicode="&#x111;" horiz-adv-x="636" 
d="M444 451v131h-146v93h146v75h119v-75h69v-93h-69v-582h-110v74c-33 -54 -94 -86 -175 -86c-153 0 -240 123 -240 271c0 149 87 272 240 272c81 0 137 -36 166 -80zM449 259c0 95 -55 167 -146 167c-90 0 -146 -72 -146 -167c0 -93 56 -166 146 -166c91 0 146 73 146 166z
" />
    <glyph glyph-name="ecaron" unicode="&#x11b;" horiz-adv-x="588" 
d="M550 225h-395c9 -82 62 -135 145 -135c55 0 102 28 121 74h120c-31 -103 -123 -176 -244 -176c-157 0 -259 117 -259 272c0 151 104 271 258 271s255 -117 255 -269c0 -19 -1 -37 -1 -37zM296 434c-77 0 -127 -50 -139 -121h276c-10 72 -60 121 -137 121zM295 570
l-152 79v96l152 -75l153 75v-96z" />
    <glyph glyph-name="emacron" unicode="&#x113;" horiz-adv-x="588" 
d="M550 225h-395c9 -82 62 -135 145 -135c55 0 102 28 121 74h120c-31 -103 -123 -176 -244 -176c-157 0 -259 117 -259 272c0 151 104 271 258 271s255 -117 255 -269c0 -19 -1 -37 -1 -37zM296 434c-77 0 -127 -50 -139 -121h276c-10 72 -60 121 -137 121zM476 712v-92
h-356v92h356z" />
    <glyph glyph-name="ebreve" unicode="&#x115;" horiz-adv-x="588" 
d="M550 225h-395c9 -82 62 -135 145 -135c55 0 102 28 121 74h120c-31 -103 -123 -176 -244 -176c-157 0 -259 117 -259 272c0 151 104 271 258 271s255 -117 255 -269c0 -19 -1 -37 -1 -37zM296 434c-77 0 -127 -50 -139 -121h276c-10 72 -60 121 -137 121zM295 665
c45 0 71 25 71 75h85c0 -97 -61 -152 -156 -152s-157 55 -157 152h86c0 -50 26 -75 71 -75z" />
    <glyph glyph-name="edotaccent" unicode="&#x117;" horiz-adv-x="588" 
d="M550 225h-395c9 -82 62 -135 145 -135c55 0 102 28 121 74h120c-31 -103 -123 -176 -244 -176c-157 0 -259 117 -259 272c0 151 104 271 258 271s255 -117 255 -269c0 -19 -1 -37 -1 -37zM296 434c-77 0 -127 -50 -139 -121h276c-10 72 -60 121 -137 121zM295 604
c-44 0 -75 30 -75 73s31 74 75 74c43 0 74 -31 74 -74s-31 -73 -74 -73z" />
    <glyph glyph-name="eogonek" unicode="&#x119;" horiz-adv-x="588" 
d="M375 -120l29 -62c-13 -9 -40 -25 -78 -25c-67 0 -106 49 -106 111c0 28 6 60 25 89c-127 22 -207 130 -207 267c0 151 104 271 258 271s255 -117 255 -269c0 -19 -1 -37 -1 -37h-395c9 -82 62 -135 145 -135c55 0 102 28 121 74h120c-26 -87 -96 -153 -190 -170
c-34 -25 -48 -54 -48 -85c0 -23 13 -42 39 -42c16 0 28 10 33 13zM296 434c-77 0 -127 -50 -139 -121h276c-10 72 -60 121 -137 121z" />
    <glyph glyph-name="gcircumflex" unicode="&#x11d;" horiz-adv-x="628" 
d="M450 445v74h110v-497c0 -137 -88 -241 -248 -241c-156 0 -227 100 -238 181h119c11 -40 46 -79 121 -79c82 0 127 50 127 123v81c-29 -45 -84 -80 -164 -80c-148 0 -239 119 -239 262s91 262 239 262c80 0 139 -32 173 -86zM446 269c0 91 -57 157 -145 157
c-86 0 -144 -66 -144 -157c0 -90 58 -157 144 -157c88 0 145 67 145 157zM166 669l152 79l153 -79v-96l-153 75l-152 -75v96z" />
    <glyph glyph-name="gbreve" unicode="&#x11f;" horiz-adv-x="628" 
d="M450 445v74h110v-497c0 -137 -88 -241 -248 -241c-156 0 -227 100 -238 181h119c11 -40 46 -79 121 -79c82 0 127 50 127 123v81c-29 -45 -84 -80 -164 -80c-148 0 -239 119 -239 262s91 262 239 262c80 0 139 -32 173 -86zM446 269c0 91 -57 157 -145 157
c-86 0 -144 -66 -144 -157c0 -90 58 -157 144 -157c88 0 145 67 145 157zM325 665c45 0 71 25 71 75h85c0 -97 -61 -152 -156 -152s-157 55 -157 152h86c0 -50 26 -75 71 -75z" />
    <glyph glyph-name="gdotaccent" unicode="&#x121;" horiz-adv-x="628" 
d="M450 445v74h110v-497c0 -137 -88 -241 -248 -241c-156 0 -227 100 -238 181h119c11 -40 46 -79 121 -79c82 0 127 50 127 123v81c-29 -45 -84 -80 -164 -80c-148 0 -239 119 -239 262s91 262 239 262c80 0 139 -32 173 -86zM446 269c0 91 -57 157 -145 157
c-86 0 -144 -66 -144 -157c0 -90 58 -157 144 -157c88 0 145 67 145 157zM324 604c-44 0 -75 30 -75 73s31 74 75 74c43 0 74 -31 74 -74s-31 -73 -74 -73z" />
    <glyph glyph-name="gcommaaccent" unicode="&#x123;" horiz-adv-x="628" 
d="M450 445v74h110v-497c0 -137 -88 -241 -248 -241c-156 0 -227 100 -238 181h119c11 -40 46 -79 121 -79c82 0 127 50 127 123v81c-29 -45 -84 -80 -164 -80c-148 0 -239 119 -239 262s91 262 239 262c80 0 139 -32 173 -86zM446 269c0 91 -57 157 -145 157
c-86 0 -144 -66 -144 -157c0 -90 58 -157 144 -157c88 0 145 67 145 157zM368 611l-101 -6s-7 19 -7 53c0 117 102 164 102 164l59 -70s-62 -29 -62 -92c0 -28 9 -49 9 -49z" />
    <glyph glyph-name="hcircumflex" unicode="&#x125;" horiz-adv-x="603" 
d="M191 750v-287c24 35 74 68 151 68c126 0 193 -84 193 -205v-326h-119v311c0 71 -32 118 -103 118c-75 0 -122 -47 -122 -129v-300h-119v750h119zM-19 848l152 79l153 -79v-96l-153 75l-152 -75v96z" />
    <glyph glyph-name="hbar" unicode="&#x127;" horiz-adv-x="603" 
d="M191 750v-75h147v-93h-147v-119c24 35 74 68 151 68c126 0 193 -84 193 -205v-326h-119v311c0 71 -32 118 -103 118c-75 0 -122 -47 -122 -129v-300h-119v582h-69v93h69v75h119z" />
    <glyph glyph-name="itilde" unicode="&#x129;" horiz-adv-x="263" 
d="M198 607c-60 0 -93 38 -138 38c-23 0 -35 -12 -38 -34h-74c4 70 45 120 118 120c60 0 93 -38 139 -38c22 0 33 12 36 34h75c-4 -70 -45 -120 -118 -120zM191 519v-519h-119v519h119z" />
    <glyph glyph-name="imacron" unicode="&#x12b;" horiz-adv-x="263" 
d="M310 712v-92h-356v92h356zM191 519v-519h-119v519h119z" />
    <glyph glyph-name="ibreve" unicode="&#x12d;" horiz-adv-x="263" 
d="M132 665c45 0 71 25 71 75h85c0 -97 -61 -152 -156 -152s-157 55 -157 152h86c0 -50 26 -75 71 -75zM191 519v-519h-119v519h119z" />
    <glyph glyph-name="iogonek" unicode="&#x12f;" horiz-adv-x="263" 
d="M186 -119l29 -62c-13 -9 -40 -25 -78 -25c-67 0 -106 49 -106 111c0 35 10 75 41 109v505h119v-519h-21c-40 -25 -56 -57 -56 -90c0 -23 13 -42 39 -42c16 0 28 10 33 13zM132 606c-44 0 -75 30 -75 73c0 44 31 75 75 75c43 0 74 -31 74 -75c0 -43 -31 -73 -74 -73z" />
    <glyph glyph-name="jcircumflex" unicode="&#x135;" horiz-adv-x="263" 
d="M-21 669l152 79l152 -79v-96l-152 75l-152 -75v96zM-10 -217v106s8 -1 18 -1c45 0 64 12 64 69v562h119v-562c0 -122 -71 -176 -170 -176c-20 0 -31 2 -31 2z" />
    <glyph glyph-name="kcommaaccent" unicode="&#x137;" horiz-adv-x="564" 
d="M412 519h150l-201 -219l216 -300h-142l-153 222l-91 -98v-124h-119v750h119v-484zM260 -50l101 6s7 -19 7 -53c0 -117 -102 -164 -102 -164l-59 70s62 29 62 92c0 28 -9 49 -9 49z" />
    <glyph glyph-name="lacute" unicode="&#x13a;" horiz-adv-x="263" 
d="M191 0h-119v750h119v-750zM141 981h123l-79 -171h-107z" />
    <glyph glyph-name="lcaron" unicode="&#x13e;" horiz-adv-x="263" 
d="M191 0h-119v750h119v-750zM276 746l101 6s7 -19 7 -53c0 -117 -102 -164 -102 -164l-59 70s62 29 62 92c0 28 -9 49 -9 49z" />
    <glyph glyph-name="lcommaaccent" unicode="&#x13c;" horiz-adv-x="263" 
d="M191 0h-119v750h119v-750zM80 -50l101 6s7 -19 7 -53c0 -117 -102 -164 -102 -164l-59 70s62 29 62 92c0 28 -9 49 -9 49z" />
    <glyph glyph-name="nacute" unicode="&#x144;" horiz-adv-x="603" 
d="M182 519v-69c22 41 75 81 160 81c126 0 193 -84 193 -205v-326h-119v311c0 71 -32 118 -103 118c-75 0 -122 -47 -122 -128v-301h-119v519h110zM303 760h123l-79 -171h-107z" />
    <glyph glyph-name="ncaron" unicode="&#x148;" horiz-adv-x="603" 
d="M182 519v-69c22 41 75 81 160 81c126 0 193 -84 193 -205v-326h-119v311c0 71 -32 118 -103 118c-75 0 -122 -47 -122 -128v-301h-119v519h110zM300 570l-152 79v96l152 -75l153 75v-96z" />
    <glyph glyph-name="ncommaaccent" unicode="&#x146;" horiz-adv-x="603" 
d="M182 519v-69c22 41 75 81 160 81c126 0 193 -84 193 -205v-326h-119v311c0 71 -32 118 -103 118c-75 0 -122 -47 -122 -128v-301h-119v519h110zM259 -50l101 6s7 -19 7 -53c0 -117 -102 -164 -102 -164l-59 70s62 29 62 92c0 28 -9 49 -9 49z" />
    <glyph glyph-name="omacron" unicode="&#x14d;" horiz-adv-x="615" 
d="M307 -12c-165 0 -269 125 -269 271s104 272 269 272c166 0 270 -126 270 -272s-104 -271 -270 -271zM157 259c0 -100 64 -166 150 -166c87 0 151 66 151 166c0 101 -64 167 -151 167c-86 0 -150 -66 -150 -167zM485 712v-92h-356v92h356z" />
    <glyph glyph-name="obreve" unicode="&#x14f;" horiz-adv-x="615" 
d="M307 -12c-165 0 -269 125 -269 271s104 272 269 272c166 0 270 -126 270 -272s-104 -271 -270 -271zM157 259c0 -100 64 -166 150 -166c87 0 151 66 151 166c0 101 -64 167 -151 167c-86 0 -150 -66 -150 -167zM307 665c45 0 71 25 71 75h85c0 -97 -61 -152 -156 -152
s-157 55 -157 152h86c0 -50 26 -75 71 -75z" />
    <glyph glyph-name="ohungarumlaut" unicode="&#x151;" horiz-adv-x="615" 
d="M307 -12c-165 0 -269 125 -269 271s104 272 269 272c166 0 270 -126 270 -272s-104 -271 -270 -271zM157 259c0 -100 64 -166 150 -166c87 0 151 66 151 166c0 101 -64 167 -151 167c-86 0 -150 -66 -150 -167zM220 750h125l-89 -171h-99zM393 750h125l-89 -171h-99z" />
    <glyph glyph-name="oslashacute" unicode="&#x1ff;" horiz-adv-x="615" 
d="M309 760h123l-79 -171h-107zM307 -12c-61 0 -114 17 -156 46l-54 -63l-45 40l54 63c-44 49 -68 114 -68 185c0 146 104 272 269 272c61 0 113 -17 155 -46l57 66l45 -40l-56 -65c44 -50 69 -116 69 -187c0 -146 -104 -271 -270 -271zM458 259c0 38 -10 72 -26 99
l-208 -241c23 -16 52 -24 83 -24c87 0 151 66 151 166zM157 259c0 -38 9 -71 25 -98l208 241c-24 15 -52 24 -83 24c-86 0 -150 -66 -150 -167z" />
    <glyph glyph-name="racute" unicode="&#x155;" horiz-adv-x="366" 
d="M352 523v-111s-14 2 -27 2c-84 0 -134 -44 -134 -144v-270h-119v519h110v-72c19 33 63 77 153 77c5 0 17 -1 17 -1zM198 760h123l-79 -171h-107z" />
    <glyph glyph-name="rcommaaccent" unicode="&#x157;" horiz-adv-x="366" 
d="M352 523v-111s-14 2 -27 2c-84 0 -134 -44 -134 -144v-270h-119v519h110v-72c19 33 63 77 153 77c5 0 17 -1 17 -1zM80 -50l101 6s7 -19 7 -53c0 -117 -102 -164 -102 -164l-59 70s62 29 62 92c0 28 -9 49 -9 49z" />
    <glyph glyph-name="rcaron" unicode="&#x159;" horiz-adv-x="366" 
d="M352 523v-111s-14 2 -27 2c-84 0 -134 -44 -134 -144v-270h-119v519h110v-72c19 33 63 77 153 77c5 0 17 -1 17 -1zM205 570l-152 79v96l152 -75l153 75v-96z" />
    <glyph glyph-name="sacute" unicode="&#x15b;" horiz-adv-x="502" 
d="M250 -12c-152 0 -214 83 -220 178h115c3 -45 39 -80 112 -80c62 0 96 23 96 59c0 110 -298 12 -298 223c0 87 78 163 206 163c149 0 199 -102 204 -172h-114c-4 37 -32 75 -93 75c-59 0 -89 -24 -89 -62c0 -101 298 -12 298 -222c0 -88 -72 -162 -217 -162zM267 760h123
l-79 -171h-107z" />
    <glyph glyph-name="scircumflex" unicode="&#x15d;" horiz-adv-x="502" 
d="M250 -12c-152 0 -214 83 -220 178h115c3 -45 39 -80 112 -80c62 0 96 23 96 59c0 110 -298 12 -298 223c0 87 78 163 206 163c149 0 199 -102 204 -172h-114c-4 37 -32 75 -93 75c-59 0 -89 -24 -89 -62c0 -101 298 -12 298 -222c0 -88 -72 -162 -217 -162zM111 669
l152 79l153 -79v-96l-153 75l-152 -75v96z" />
    <glyph glyph-name="scedilla" unicode="&#x15f;" horiz-adv-x="516" 
d="M192 -215l33 54s21 -20 56 -20c25 0 45 12 45 38c0 22 -13 38 -44 38c-22 0 -35 -13 -35 -13l-39 23l25 85c-129 10 -184 87 -189 176h115c3 -45 39 -80 112 -80c62 0 96 23 96 59c0 110 -298 12 -298 223c0 87 78 163 206 163c149 0 199 -102 204 -172h-114
c-4 37 -32 75 -93 75c-59 0 -89 -24 -89 -62c0 -101 298 -12 298 -222c0 -82 -63 -152 -189 -161l-12 -39s6 3 25 3c54 0 92 -39 92 -93c0 -67 -49 -105 -111 -105c-65 0 -94 30 -94 30z" />
    <glyph glyph-name="scommaaccent" unicode="&#x219;" horiz-adv-x="502" 
d="M250 -12c-152 0 -214 83 -220 178h115c3 -45 39 -80 112 -80c62 0 96 23 96 59c0 110 -298 12 -298 223c0 87 78 163 206 163c149 0 199 -102 204 -172h-114c-4 37 -32 75 -93 75c-59 0 -89 -24 -89 -62c0 -101 298 -12 298 -222c0 -88 -72 -162 -217 -162zM210 -50
l101 6s7 -19 7 -53c0 -117 -102 -164 -102 -164l-59 70s62 29 62 92c0 28 -9 49 -9 49z" />
    <glyph glyph-name="tcaron" unicode="&#x165;" horiz-adv-x="330" 
d="M305 106v-103s-22 -6 -62 -6c-106 0 -152 55 -152 153v274h-79v95h79v135h119v-135h97v-95h-97v-262c0 -41 17 -61 58 -61c20 0 37 5 37 5zM289 746l97 5s7 -17 7 -48c0 -106 -98 -149 -98 -149l-57 64s60 26 60 83c0 26 -9 45 -9 45z" />
    <glyph glyph-name="tcommaaccent" unicode="&#x163;" horiz-adv-x="330" 
d="M305 106v-103s-22 -6 -62 -6c-106 0 -152 55 -152 153v274h-79v95h79v135h119v-135h97v-95h-97v-262c0 -41 17 -61 58 -61c20 0 37 5 37 5zM140 -50l101 6s7 -19 7 -53c0 -117 -102 -164 -102 -164l-59 70s62 29 62 92c0 28 -9 49 -9 49z" />
    <glyph glyph-name="tbar" unicode="&#x167;" horiz-adv-x="330" 
d="M305 106v-103s-22 -6 -62 -6c-106 0 -151 54 -151 153v95h-62v94h62v85h-80v95h80v135h118v-135h97v-95h-97v-85h78v-94h-78v-83c0 -41 17 -61 59 -61c20 0 36 5 36 5z" />
    <glyph glyph-name="utilde" unicode="&#x169;" horiz-adv-x="598" 
d="M407 220v299h119v-519h-110v67c-22 -41 -74 -79 -158 -79c-126 0 -191 83 -191 204v327h119v-311c0 -71 29 -118 101 -118c74 0 120 45 120 130zM367 607c-60 0 -93 38 -138 38c-23 0 -35 -12 -38 -34h-74c4 70 45 120 118 120c60 0 93 -38 139 -38c22 0 33 12 36 34h75
c-4 -70 -45 -120 -118 -120z" />
    <glyph glyph-name="umacron" unicode="&#x16b;" horiz-adv-x="598" 
d="M407 220v299h119v-519h-110v67c-22 -41 -74 -79 -158 -79c-126 0 -191 83 -191 204v327h119v-311c0 -71 29 -118 101 -118c74 0 120 45 120 130zM477 712v-92h-356v92h356z" />
    <glyph glyph-name="ubreve" unicode="&#x16d;" horiz-adv-x="598" 
d="M407 220v299h119v-519h-110v67c-22 -41 -74 -79 -158 -79c-126 0 -191 83 -191 204v327h119v-311c0 -71 29 -118 101 -118c74 0 120 45 120 130zM299 665c45 0 71 25 71 75h85c0 -97 -61 -152 -156 -152s-157 55 -157 152h86c0 -50 26 -75 71 -75z" />
    <glyph glyph-name="uring" unicode="&#x16f;" horiz-adv-x="598" 
d="M407 220v299h119v-519h-110v67c-22 -41 -74 -79 -158 -79c-126 0 -191 83 -191 204v327h119v-311c0 -71 29 -118 101 -118c74 0 120 45 120 130zM246 695c0 -30 19 -54 52 -54s52 24 52 54s-19 54 -52 54s-52 -24 -52 -54zM178 695c0 66 49 119 120 119
c72 0 120 -53 120 -119c0 -67 -48 -120 -120 -120c-71 0 -120 53 -120 120z" />
    <glyph glyph-name="uhungarumlaut" unicode="&#x171;" horiz-adv-x="598" 
d="M407 220v299h119v-519h-110v67c-22 -41 -74 -79 -158 -79c-126 0 -191 83 -191 204v327h119v-311c0 -71 29 -118 101 -118c74 0 120 45 120 130zM207 750h125l-89 -171h-99zM380 750h125l-89 -171h-99z" />
    <glyph glyph-name="uogonek" unicode="&#x173;" horiz-adv-x="598" 
d="M526 -119l29 -62c-13 -9 -40 -25 -78 -25c-67 0 -106 49 -106 111c0 37 11 78 45 114v48c-22 -41 -74 -79 -158 -79c-126 0 -191 83 -191 204v327h119v-311c0 -71 29 -118 101 -118c74 0 120 45 120 130v299h119v-519h-16c-40 -25 -56 -57 -56 -90c0 -23 13 -42 39 -42
c16 0 28 10 33 13z" />
    <glyph glyph-name="wgrave" unicode="&#x1e81;" horiz-adv-x="839" 
d="M537 0l-117 356h-1l-118 -356h-113l-181 519h123l116 -372l119 372h110l118 -373l117 373h121l-181 -519h-113zM285 760h124l63 -171h-107z" />
    <glyph glyph-name="wacute" unicode="&#x1e83;" horiz-adv-x="839" 
d="M537 0l-117 356h-1l-118 -356h-113l-181 519h123l116 -372l119 372h110l118 -373l117 373h121l-181 -519h-113zM429 760h123l-79 -171h-107z" />
    <glyph glyph-name="wcircumflex" unicode="&#x175;" horiz-adv-x="839" 
d="M537 0l-117 356h-1l-118 -356h-113l-181 519h123l116 -372l119 372h110l118 -373l117 373h121l-181 -519h-113zM267 669l152 79l153 -79v-96l-153 75l-152 -75v96z" />
    <glyph glyph-name="wdieresis" unicode="&#x1e85;" horiz-adv-x="839" 
d="M537 0l-117 356h-1l-118 -356h-113l-181 519h123l116 -372l119 372h110l118 -373l117 373h121l-181 -519h-113zM333 612c-38 0 -66 27 -66 65c0 39 28 66 66 66s66 -27 66 -66c0 -38 -28 -65 -66 -65zM504 612c-39 0 -66 27 -66 65c0 39 27 66 66 66c38 0 66 -27 66 -66
c0 -38 -28 -65 -66 -65z" />
    <glyph glyph-name="ygrave" unicode="&#x1ef3;" horiz-adv-x="545" 
d="M126 -208l88 212l-209 515h127l141 -376l143 376h124l-296 -727h-118zM148 760h124l63 -171h-107z" />
    <glyph glyph-name="ycircumflex" unicode="&#x177;" horiz-adv-x="545" 
d="M126 -208l88 212l-209 515h127l141 -376l143 376h124l-296 -727h-118zM120 669l152 79l153 -79v-96l-153 75l-152 -75v96z" />
    <glyph glyph-name="zacute" unicode="&#x17a;" horiz-adv-x="539" 
d="M485 422l-286 -319h290v-103h-439v97l285 319h-281v103h431v-97zM271 760h123l-79 -171h-107z" />
    <glyph glyph-name="zdotaccent" unicode="&#x17c;" horiz-adv-x="539" 
d="M485 422l-286 -319h290v-103h-439v97l285 319h-281v103h431v-97zM269 604c-44 0 -75 30 -75 73s31 74 75 74c43 0 74 -31 74 -74s-31 -73 -74 -73z" />
    <glyph glyph-name="eng" unicode="&#x14b;" horiz-adv-x="603" 
d="M416 40v271c0 71 -32 118 -103 118c-75 0 -122 -47 -122 -128v-301h-119v519h110v-69c22 41 75 81 160 81c126 0 193 -84 193 -205v-261c0 -126 -56 -228 -187 -257l-43 94c70 18 111 60 111 138z" />
    <glyph glyph-name="hyphen.cap" horiz-adv-x="406" 
d="M362 416v-111h-318v111h318z" />
    <glyph glyph-name="exclamdown.cap" horiz-adv-x="270" 
d="M86 509h98l21 -510h-140zM135 717c45 0 78 -31 78 -77c0 -45 -33 -77 -78 -77c-46 0 -78 32 -78 77c0 46 32 77 78 77z" />
    <glyph glyph-name="questiondown.cap" horiz-adv-x="525" 
d="M487 195c0 -117 -90 -210 -227 -210c-145 0 -225 92 -225 204c0 167 180 212 180 305c0 16 -2 22 -2 22h116s3 -11 3 -23c0 -152 -176 -189 -176 -298c0 -61 38 -101 104 -101c67 0 107 46 107 109c0 24 -5 45 -5 45h120s5 -20 5 -53zM266 718c46 0 78 -31 78 -77
c0 -45 -32 -77 -78 -77c-45 0 -78 32 -78 77c0 46 33 77 78 77z" />
    <glyph glyph-name="endash.cap" horiz-adv-x="500" 
d="M500 416v-111h-500v111h500z" />
    <glyph glyph-name="emdash.cap" horiz-adv-x="1000" 
d="M1000 416v-111h-1000v111h1000z" />
    <glyph glyph-name="periodcentered.cap" horiz-adv-x="245" 
d="M123 280c-48 0 -83 34 -83 81c0 48 35 83 83 83c47 0 82 -35 82 -83c0 -47 -35 -81 -82 -81z" />
    <glyph glyph-name="parenleft.cap" horiz-adv-x="348" 
d="M211 355c0 -167 35 -315 111 -458h-120c-73 119 -112 285 -112 458s39 339 112 458h120c-76 -144 -111 -291 -111 -458z" />
    <glyph glyph-name="parenright.cap" horiz-adv-x="348" 
d="M137 355c0 167 -35 314 -111 458h120c73 -119 112 -285 112 -458s-39 -339 -112 -458h-120c76 143 111 291 111 458z" />
    <glyph glyph-name="bracketleft.cap" horiz-adv-x="325" 
d="M303 5v-109h-231v916h231v-109h-120v-698h120z" />
    <glyph glyph-name="bracketright.cap" horiz-adv-x="325" 
d="M22 -104v109h120v698h-120v109h231v-916h-231z" />
    <glyph glyph-name="braceleft.cap" horiz-adv-x="342" 
d="M275 -104c-117 0 -166 61 -166 171v181c0 40 -20 55 -51 55h-18v102h18c31 0 51 15 51 55v181c0 110 49 171 166 171c27 0 45 -3 45 -3v-109s-18 3 -38 3c-46 0 -61 -22 -61 -66v-176c0 -50 -16 -86 -47 -107c31 -22 47 -57 47 -106v-177c0 -44 15 -66 61 -66
c20 0 38 3 38 3v-109s-18 -3 -45 -3z" />
    <glyph glyph-name="braceright.cap" horiz-adv-x="342" 
d="M67 -104c-27 0 -45 3 -45 3v109s18 -3 37 -3c47 0 62 22 62 66v177c0 49 15 84 46 106c-31 21 -46 57 -46 107v176c0 44 -15 66 -62 66c-19 0 -37 -3 -37 -3v109s18 3 45 3c116 0 165 -61 165 -171v-181c0 -40 20 -55 51 -55h19v-102h-19c-31 0 -51 -15 -51 -55v-181
c0 -110 -49 -171 -165 -171z" />
    <glyph glyph-name="at.cap" horiz-adv-x="820" 
d="M488 378c0 48 -20 83 -70 83c-62 0 -99 -55 -99 -132c0 -60 31 -85 75 -85c62 0 94 67 94 134zM628 140h101c-68 -99 -185 -160 -314 -160c-232 0 -371 153 -371 369c0 215 159 380 379 380c212 0 354 -129 354 -315c0 -164 -107 -246 -202 -246c-52 0 -79 25 -91 50
c-30 -39 -76 -50 -107 -50c-91 0 -149 61 -149 160c0 111 63 213 174 213c45 0 87 -16 111 -54l9 40h80l-36 -181c-5 -24 -11 -47 -11 -59c0 -25 14 -43 37 -43c60 0 104 70 104 165c0 160 -117 243 -275 243c-177 0 -289 -129 -289 -302c0 -184 113 -293 288 -293
c86 0 165 38 208 83z" />
    <glyph glyph-name="zero.slash" 
d="M291 -15c-169 0 -255 151 -255 370s86 370 255 370c168 0 255 -151 255 -370s-87 -370 -255 -370zM291 610c-85 0 -131 -81 -131 -255c0 -67 8 -120 23 -158l162 398c-16 10 -34 15 -54 15zM291 100c85 0 131 80 131 255c0 65 -8 117 -24 155l-161 -397
c16 -9 34 -13 54 -13z" />
    <glyph glyph-name="Amacron" unicode="&#x100;" horiz-adv-x="683" 
d="M129 0h-128l275 710h129l276 -710h-132l-51 137h-318zM340 560h-2l-118 -313h238zM518 862v-92h-356v92h356z" />
    <glyph glyph-name="Abreve" unicode="&#x102;" horiz-adv-x="683" 
d="M129 0h-128l275 710h129l276 -710h-132l-51 137h-318zM340 560h-2l-118 -313h238zM341 831c45 0 71 25 71 75h85c0 -97 -61 -152 -156 -152s-157 55 -157 152h86c0 -50 26 -75 71 -75z" />
    <glyph glyph-name="Aringacute" unicode="&#x1fa;" horiz-adv-x="683" 
d="M129 0h-128l276 710h129l275 -710h-131l-51 137h-318zM223 860c0 54 32 99 82 113l47 126h101l-60 -130c43 -18 70 -60 70 -109c0 -67 -48 -120 -120 -120c-71 0 -120 53 -120 120zM341 560h-2l-118 -313h237zM291 860c0 -30 19 -54 52 -54s52 24 52 54s-19 54 -52 54
s-52 -24 -52 -54z" />
    <glyph glyph-name="Aogonek" unicode="&#x104;" horiz-adv-x="683" 
d="M646 -119l29 -62c-13 -9 -40 -25 -78 -25c-67 0 -106 49 -106 111c0 38 12 81 49 118l-42 114h-318l-51 -137h-128l275 710h129l276 -710h-51c-40 -25 -56 -57 -56 -90c0 -23 13 -42 39 -42c16 0 28 10 33 13zM340 560h-2l-118 -313h238z" />
    <glyph glyph-name="commaaccentcomb" horiz-adv-x="235" 
d="M90 -50l101 6s7 -19 7 -53c0 -117 -102 -164 -102 -164l-59 70s62 29 62 92c0 28 -9 49 -9 49z" />
    <glyph glyph-name="zerosuperior" unicode="&#x2070;" horiz-adv-x="402" 
d="M133 652c0 -104 24 -138 68 -138s68 34 68 138c0 105 -24 140 -68 140s-68 -35 -68 -140zM39 652c0 135 49 227 162 227s162 -92 162 -227c0 -134 -49 -225 -162 -225s-162 91 -162 225z" />
    <glyph glyph-name="foursuperior" unicode="&#x2074;" horiz-adv-x="396" 
d="M367 606v-79h-57v-91h-85v91h-195v76l187 266h93v-263h57zM225 755l-105 -149h105v149z" />
    <glyph glyph-name="fivesuperior" unicode="&#x2075;" horiz-adv-x="397" 
d="M41 570h94c3 -30 19 -60 62 -60c41 0 65 26 65 70c0 41 -23 68 -65 68c-46 0 -58 -34 -60 -41h-86l36 262h244v-87h-171l-10 -69c3 3 27 15 61 15c102 0 145 -75 145 -148c0 -90 -65 -153 -160 -153c-89 0 -147 57 -155 143z" />
    <glyph glyph-name="sixsuperior" unicode="&#x2076;" horiz-adv-x="391" 
d="M184 869h120c-51 -49 -98 -98 -127 -146c5 1 17 8 36 8c94 0 146 -68 146 -151c0 -85 -62 -153 -158 -153c-102 0 -160 71 -160 161c0 99 61 192 143 281zM264 580c0 42 -26 71 -63 71c-39 0 -65 -29 -65 -71c0 -41 26 -70 65 -70c37 0 63 29 63 70z" />
    <glyph glyph-name="sevensuperior" unicode="&#x2077;" horiz-adv-x="351" 
d="M30 735v134h299v-76c-80 -102 -119 -210 -148 -357h-98c29 142 75 260 142 354h-110v-55h-85z" />
    <glyph glyph-name="eightsuperior" unicode="&#x2078;" horiz-adv-x="388" 
d="M194 506c42 0 62 24 62 54c0 31 -22 54 -62 54s-62 -23 -62 -54c0 -30 20 -54 62 -54zM194 698c37 0 57 21 57 51c0 26 -19 49 -57 49s-57 -23 -57 -49c0 -30 20 -51 57 -51zM194 426c-99 0 -154 54 -154 130c0 41 15 79 53 103c-29 23 -44 56 -44 92
c0 73 55 127 145 127s145 -54 145 -127c0 -36 -15 -69 -45 -92c39 -24 54 -62 54 -103c0 -76 -55 -130 -154 -130z" />
    <glyph glyph-name="ninesuperior" unicode="&#x2079;" horiz-adv-x="391" 
d="M207 436h-120c50 49 98 99 127 147c-6 -1 -18 -8 -37 -8c-93 0 -146 67 -146 150c0 85 63 154 159 154c101 0 160 -72 160 -162c0 -99 -62 -192 -143 -281zM126 725c0 -42 27 -71 64 -71c38 0 64 29 64 71c0 41 -26 70 -64 70c-37 0 -64 -29 -64 -70z" />
    <glyph glyph-name="Tcommaaccent" unicode="&#x162;" horiz-adv-x="546" 
d="M539 710v-115h-206v-595h-121v595h-206v115h533zM222 -50l101 6s7 -19 7 -53c0 -117 -102 -164 -102 -164l-59 70s62 29 62 92c0 28 -9 49 -9 49z" />
    <glyph glyph-name="zero.onum" horiz-adv-x="638" 
d="M162 269c0 -102 62 -173 157 -173c94 0 156 71 156 173c0 103 -62 174 -156 174c-95 0 -157 -71 -157 -174zM40 269c0 152 109 282 279 282s279 -130 279 -282s-109 -281 -279 -281s-279 129 -279 281z" />
    <glyph glyph-name="one.onum" horiz-adv-x="370" 
d="M255 0h-119v419h-96v80l119 40h96v-539z" />
    <glyph glyph-name="two.onum" horiz-adv-x="540" 
d="M178 324h-121s-2 13 -2 26c0 119 80 201 212 201c114 0 208 -63 208 -185c0 -96 -68 -154 -159 -214l-69 -46h249v-106h-440v91l168 118c83 58 129 94 129 153c0 46 -30 82 -89 82s-89 -37 -89 -93c0 -16 3 -27 3 -27z" />
    <glyph glyph-name="three.onum" horiz-adv-x="551" 
d="M205 164v104h65c71 0 105 37 105 84c0 50 -32 88 -98 88c-69 0 -99 -50 -100 -101h-120c3 122 90 211 220 211c136 0 217 -78 217 -191c0 -57 -28 -111 -85 -139c66 -27 92 -82 92 -148c0 -115 -88 -206 -227 -206c-135 0 -225 89 -230 217h119c4 -59 41 -106 111 -106
c64 0 107 36 107 95c0 57 -37 92 -111 92h-65z" />
    <glyph glyph-name="four.onum" horiz-adv-x="549" 
d="M516 136v-106h-73v-150h-112v150h-313v90l302 419h123v-403h73zM155 136h176v241h-1z" />
    <glyph glyph-name="five.onum" horiz-adv-x="543" 
d="M63 161l54 378h354v-106h-262l-21 -143c11 11 47 35 109 35c148 0 211 -113 211 -221c0 -130 -95 -228 -233 -228c-129 0 -217 79 -227 197h118c9 -48 46 -91 109 -91c69 0 113 46 113 122c0 72 -42 120 -113 120c-65 0 -95 -46 -102 -63h-110z" />
    <glyph glyph-name="six.onum" horiz-adv-x="554" 
d="M268 659h149c-71 -69 -150 -154 -195 -240c20 12 48 21 85 21c135 0 214 -101 214 -223c0 -127 -95 -230 -237 -230c-147 0 -238 107 -238 242c0 150 95 295 222 430zM401 217c0 73 -46 123 -117 123c-70 0 -116 -51 -116 -123s46 -123 116 -123c71 0 117 51 117 123z
" />
    <glyph glyph-name="seven.onum" horiz-adv-x="498" 
d="M473 539v-108c-122 -184 -171 -351 -193 -551h-126c25 211 89 391 181 549h-187v-91h-118v201h443z" />
    <glyph glyph-name="eight.onum" horiz-adv-x="552" 
d="M276 93c73 0 107 44 107 95c0 56 -40 95 -107 95c-66 0 -106 -39 -106 -95c0 -51 33 -95 106 -95zM276 388c63 0 97 38 97 90c0 44 -29 87 -97 87c-67 0 -97 -43 -97 -87c0 -52 35 -90 97 -90zM276 -13c-144 0 -226 80 -226 194c0 61 28 124 89 158
c-47 33 -72 88 -72 143c0 105 76 188 209 188c134 0 210 -83 210 -188c0 -55 -25 -110 -72 -143c61 -34 88 -97 88 -158c0 -114 -81 -194 -226 -194z" />
    <glyph glyph-name="nine.onum" horiz-adv-x="554" 
d="M287 -121h-150c72 69 150 154 196 240c-20 -12 -49 -21 -86 -21c-134 0 -214 101 -214 223c0 127 96 230 238 230c147 0 237 -107 237 -242c0 -150 -95 -295 -221 -430zM154 321c0 -73 46 -123 117 -123c70 0 116 51 116 123s-47 123 -116 123c-71 0 -117 -51 -117 -123z
" />
    <glyph glyph-name="zero.pnum" 
d="M291 -15c-169 0 -255 151 -255 370s86 370 255 370c168 0 255 -151 255 -370s-87 -370 -255 -370zM291 610c-85 0 -131 -81 -131 -255c0 -175 46 -255 131 -255s131 80 131 255c0 174 -46 255 -131 255z" />
    <glyph glyph-name="one.pnum" horiz-adv-x="394" 
d="M274 710v-710h-122v590h-112v80l136 40h98z" />
    <glyph glyph-name="two.pnum" horiz-adv-x="556" 
d="M522 0h-483v101l280 267c47 44 67 83 67 135c0 66 -45 110 -115 110c-78 0 -114 -52 -114 -120c0 -21 3 -33 3 -33h-121s-3 15 -3 35c0 137 93 230 235 230c149 0 237 -92 237 -219c0 -93 -33 -156 -120 -233l-182 -161h316v-112z" />
    <glyph glyph-name="three.pnum" horiz-adv-x="564" 
d="M212 312v103h64c85 0 124 42 124 97c0 59 -38 103 -116 103c-80 0 -114 -56 -116 -111h-119c3 123 95 221 236 221c145 0 233 -84 233 -206c0 -65 -31 -124 -103 -152c79 -28 112 -88 112 -161c0 -124 -97 -221 -246 -221c-145 0 -240 90 -247 226h120
c5 -66 46 -117 127 -117c75 0 125 43 125 112c0 65 -43 106 -129 106h-65z" />
    <glyph glyph-name="four.pnum" horiz-adv-x="581" 
d="M551 261v-106h-76v-155h-113v155h-340v91l326 464h127v-449h76zM362 547h-1l-203 -286h204v286z" />
    <glyph glyph-name="five.pnum" horiz-adv-x="570" 
d="M57 298l58 412h382v-112h-289l-24 -172c15 15 61 46 124 46c161 0 225 -123 225 -238c0 -142 -100 -249 -249 -249c-141 0 -233 85 -244 211h123c9 -51 47 -100 121 -100c77 0 127 55 127 138c0 80 -48 133 -127 133c-77 0 -112 -57 -117 -69h-110z" />
    <glyph glyph-name="six.pnum" horiz-adv-x="570" 
d="M292 -15c-156 0 -252 115 -252 256c0 164 107 319 247 469h150c-80 -77 -170 -176 -224 -277c23 16 57 31 103 31c142 0 227 -107 227 -235c0 -134 -102 -244 -251 -244zM419 229c0 81 -53 136 -127 136c-75 0 -127 -55 -127 -136c0 -82 52 -137 127 -137
c74 0 127 55 127 137z" />
    <glyph glyph-name="seven.pnum" horiz-adv-x="513" 
d="M143 509h-118v201h468v-108c-129 -196 -177 -376 -201 -602h-127c26 235 89 433 190 600h-212v-91z" />
    <glyph glyph-name="eight.pnum" horiz-adv-x="575" 
d="M288 -15c-155 0 -244 86 -244 207c0 68 33 139 102 175c-57 34 -84 96 -84 157c0 113 83 201 226 201s227 -89 227 -203c0 -61 -27 -122 -86 -155c69 -37 102 -107 102 -175c0 -121 -88 -207 -243 -207zM288 308c-75 0 -121 -45 -121 -108c0 -58 39 -109 121 -109
s121 51 121 109c0 63 -46 108 -121 108zM288 417c71 0 113 42 113 102c0 51 -37 101 -113 101s-112 -48 -112 -99c0 -60 40 -104 112 -104z" />
    <glyph glyph-name="nine.pnum" horiz-adv-x="570" 
d="M278 725c156 0 252 -115 252 -256c0 -165 -107 -319 -247 -469h-150c79 77 169 175 224 276c-24 -16 -57 -31 -103 -31c-142 0 -227 108 -227 236c0 134 102 244 251 244zM151 481c0 -81 53 -137 127 -137c75 0 127 56 127 137s-52 137 -127 137
c-74 0 -127 -56 -127 -137z" />
    <glyph glyph-name="currency" unicode="&#xa4;" horiz-adv-x="600" 
d="M110 252c0 34 8 65 24 93l-74 75l79 80l77 -78c25 14 54 21 85 21c29 0 58 -7 83 -20l77 76l79 -79l-73 -74c15 -28 25 -60 25 -94c0 -31 -8 -60 -21 -85l69 -68l-79 -80l-67 66c-28 -15 -59 -24 -93 -24c-35 0 -67 9 -95 25l-67 -67l-79 80l70 70c-13 25 -20 53 -20 83z
M199 252c0 -56 46 -102 102 -102c55 0 101 46 101 102c0 55 -46 101 -101 101c-56 0 -102 -46 -102 -101z" />
    <glyph glyph-name="zeroinferior" unicode="&#x2080;" horiz-adv-x="402" 
d="M133 57c0 -105 24 -139 68 -139s68 34 68 139c0 104 -24 139 -68 139s-68 -35 -68 -139zM39 57c0 134 49 226 162 226s162 -92 162 -226c0 -135 -49 -226 -162 -226s-162 91 -162 226z" />
    <glyph glyph-name="oneinferior" unicode="&#x2081;" horiz-adv-x="286" 
d="M206 274v-433h-93v341h-85v68l102 24h76z" />
    <glyph glyph-name="twoinferior" unicode="&#x2082;" horiz-adv-x="390" 
d="M347 -159h-303v71l168 145c30 26 41 47 41 79c0 33 -19 60 -59 60c-38 0 -60 -24 -60 -64c0 -13 2 -21 2 -21h-93s-1 10 -1 22c0 89 65 150 152 150c94 0 153 -64 153 -141c0 -63 -24 -102 -78 -146l-84 -68h162v-87z" />
    <glyph glyph-name="threeinferior" unicode="&#x2083;" horiz-adv-x="388" 
d="M142 18v77h46c41 0 62 21 62 53c0 28 -20 50 -57 50c-39 0 -59 -25 -60 -60h-91c2 79 57 145 151 145c97 0 147 -51 147 -126c0 -39 -17 -77 -56 -96c42 -18 62 -56 62 -98c0 -77 -65 -132 -155 -132c-91 0 -146 56 -150 140h90c3 -35 23 -55 60 -55c33 0 56 20 56 51
c0 32 -16 51 -63 51h-42z" />
    <glyph glyph-name="fourinferior" unicode="&#x2084;" horiz-adv-x="396" 
d="M367 10v-79h-57v-90h-85v90h-195v76l187 266h93v-263h57zM225 159l-105 -149h105v149z" />
    <glyph glyph-name="fiveinferior" unicode="&#x2085;" horiz-adv-x="397" 
d="M41 -24h94c3 -29 19 -59 62 -59c41 0 65 26 65 70c0 40 -23 67 -65 67c-46 0 -57 -33 -60 -41h-86l36 262h244v-87h-171l-10 -69c3 3 27 15 61 15c102 0 145 -75 145 -147c0 -90 -65 -154 -160 -154c-89 0 -147 57 -155 143z" />
    <glyph glyph-name="sixinferior" unicode="&#x2086;" horiz-adv-x="391" 
d="M184 275h120c-51 -49 -98 -98 -127 -146c5 1 17 8 36 8c94 0 146 -68 146 -150c0 -86 -62 -154 -158 -154c-102 0 -160 71 -160 162c0 98 61 192 143 280zM264 -13c0 42 -26 70 -63 70c-39 0 -65 -28 -65 -70s26 -70 65 -70c37 0 63 28 63 70z" />
    <glyph glyph-name="seveninferior" unicode="&#x2087;" horiz-adv-x="351" 
d="M30 139v134h299v-76c-80 -102 -119 -210 -148 -357h-98c29 142 75 260 142 354h-110v-55h-85z" />
    <glyph glyph-name="eightinferior" unicode="&#x2088;" horiz-adv-x="388" 
d="M194 -89c42 0 62 24 62 54c0 31 -22 54 -62 54s-62 -23 -62 -54c0 -30 20 -54 62 -54zM194 103c37 0 57 21 57 51c0 26 -19 49 -57 49s-57 -23 -57 -49c0 -30 20 -51 57 -51zM194 -169c-99 0 -154 54 -154 130c0 41 15 79 53 103c-29 23 -44 56 -44 92
c0 73 55 127 145 127s145 -54 145 -127c0 -36 -15 -69 -45 -92c39 -24 54 -62 54 -103c0 -76 -55 -130 -154 -130z" />
    <glyph glyph-name="nineinferior" unicode="&#x2089;" horiz-adv-x="391" 
d="M207 -159h-120c50 48 98 98 127 146c-6 -1 -18 -8 -37 -8c-93 0 -146 68 -146 150c0 86 63 154 159 154c101 0 160 -71 160 -162c0 -98 -62 -192 -143 -280zM126 129c0 -42 27 -70 64 -70c38 0 64 28 64 70s-26 70 -64 70c-37 0 -64 -28 -64 -70z" />
    <glyph glyph-name="zero.dnom" horiz-adv-x="402" 
d="M133 215c0 -105 24 -139 68 -139s68 34 68 139s-24 140 -68 140s-68 -35 -68 -140zM39 215c0 135 49 227 162 227s162 -92 162 -227s-49 -226 -162 -226s-162 91 -162 226z" />
    <glyph glyph-name="one.dnom" horiz-adv-x="286" 
d="M206 432v-432h-93v341h-85v67l102 24h76z" />
    <glyph glyph-name="two.dnom" horiz-adv-x="390" 
d="M347 0h-303v72l168 145c30 25 41 46 41 78c0 33 -19 60 -59 60c-38 0 -60 -24 -60 -63c0 -14 2 -22 2 -22h-93s-1 10 -1 23c0 88 65 149 152 149c94 0 153 -63 153 -141c0 -63 -23 -102 -78 -146l-84 -68h162v-87z" />
    <glyph glyph-name="three.dnom" horiz-adv-x="388" 
d="M142 176v77h46c41 0 62 22 62 54c0 27 -20 49 -57 49c-39 0 -59 -25 -60 -59h-91c2 79 57 145 151 145c97 0 147 -52 147 -127c0 -38 -17 -76 -56 -96c42 -17 62 -56 62 -98c0 -76 -65 -132 -155 -132c-91 0 -146 56 -150 140h90c3 -34 23 -54 60 -54c33 0 56 20 56 50
c0 33 -16 51 -63 51h-42z" />
    <glyph glyph-name="four.dnom" horiz-adv-x="396" 
d="M367 169v-79h-57v-90h-85v90h-195v76l187 266h93v-263h57zM225 318l-105 -149h105v149z" />
    <glyph glyph-name="five.dnom" horiz-adv-x="397" 
d="M41 132h94c3 -29 19 -59 62 -59c41 0 65 26 65 70c0 40 -23 67 -65 67c-46 0 -57 -33 -60 -41h-86l36 262h244v-87h-171l-10 -69c3 3 27 15 61 15c102 0 145 -75 145 -147c0 -90 -65 -154 -160 -154c-89 0 -147 57 -155 143z" />
    <glyph glyph-name="six.dnom" horiz-adv-x="391" 
d="M184 431h120c-51 -49 -98 -98 -127 -146c5 1 17 8 36 8c94 0 146 -68 146 -150c0 -86 -62 -154 -158 -154c-102 0 -160 71 -160 162c0 98 61 192 143 280zM264 143c0 42 -26 70 -63 70c-39 0 -65 -28 -65 -70s26 -70 65 -70c37 0 63 28 63 70z" />
    <glyph glyph-name="seven.dnom" horiz-adv-x="351" 
d="M30 298v134h299v-76c-80 -102 -119 -209 -148 -356h-98c29 142 75 259 142 353h-110v-55h-85z" />
    <glyph glyph-name="eight.dnom" horiz-adv-x="388" 
d="M194 70c42 0 62 23 62 54c0 30 -22 54 -62 54s-62 -24 -62 -54c0 -31 20 -54 62 -54zM194 261c37 0 57 22 57 51c0 27 -19 49 -57 49s-57 -22 -57 -49c0 -29 20 -51 57 -51zM194 -11c-99 0 -154 54 -154 130c0 42 15 79 53 103c-29 24 -44 56 -44 92c0 73 55 128 145 128
s145 -55 145 -128c0 -35 -15 -68 -45 -92c39 -24 54 -61 54 -103c0 -76 -55 -130 -154 -130z" />
    <glyph glyph-name="nine.dnom" horiz-adv-x="391" 
d="M207 0h-120c50 49 98 98 127 146c-6 -1 -18 -8 -37 -8c-93 0 -146 68 -146 151c0 85 63 153 159 153c101 0 160 -71 160 -161c0 -99 -62 -193 -143 -281zM126 289c0 -42 27 -71 64 -71c38 0 64 29 64 71c0 41 -26 70 -64 70c-37 0 -64 -29 -64 -70z" />
    <glyph glyph-name="zero.numerator" horiz-adv-x="402" 
d="M133 493c0 -105 24 -139 68 -139s68 34 68 139c0 104 -24 139 -68 139s-68 -35 -68 -139zM39 493c0 134 49 226 162 226s162 -92 162 -226c0 -135 -49 -226 -162 -226s-162 91 -162 226z" />
    <glyph glyph-name="one.numerator" horiz-adv-x="286" 
d="M206 710v-433h-93v341h-85v68l102 24h76z" />
    <glyph glyph-name="two.numerator" horiz-adv-x="390" 
d="M347 277h-303v72l168 145c30 26 41 47 41 79c0 33 -19 60 -59 60c-38 0 -60 -24 -60 -64c0 -13 2 -21 2 -21h-93s-1 10 -1 22c0 89 65 150 152 150c94 0 153 -64 153 -142c0 -62 -24 -101 -78 -145l-84 -69h162v-87z" />
    <glyph glyph-name="three.numerator" horiz-adv-x="388" 
d="M142 454v77h46c41 0 62 21 62 53c0 28 -20 50 -57 50c-39 0 -59 -25 -60 -60h-91c2 79 57 145 151 145c97 0 147 -51 147 -126c0 -39 -17 -77 -56 -96c42 -18 62 -56 62 -98c0 -77 -65 -132 -155 -132c-91 0 -146 56 -150 140h90c3 -35 23 -55 60 -55c33 0 56 20 56 51
c0 32 -16 51 -63 51h-42z" />
    <glyph glyph-name="four.numerator" horiz-adv-x="396" 
d="M367 447v-79h-57v-91h-85v91h-195v76l187 266h93v-263h57zM225 596l-105 -149h105v149z" />
    <glyph glyph-name="five.numerator" horiz-adv-x="397" 
d="M41 411h94c3 -30 19 -60 62 -60c41 0 65 26 65 70c0 41 -23 68 -65 68c-46 0 -57 -33 -60 -41h-86l36 262h244v-87h-171l-10 -69c3 3 27 15 61 15c102 0 145 -75 145 -148c0 -90 -65 -153 -160 -153c-89 0 -147 57 -155 143z" />
    <glyph glyph-name="six.numerator" horiz-adv-x="391" 
d="M184 710h120c-51 -49 -98 -98 -127 -146c5 1 17 8 36 8c94 0 146 -68 146 -151c0 -85 -62 -153 -158 -153c-102 0 -160 71 -160 161c0 99 61 192 143 281zM264 421c0 42 -26 71 -63 71c-39 0 -65 -29 -65 -71c0 -41 26 -70 65 -70c37 0 63 29 63 70z" />
    <glyph glyph-name="seven.numerator" horiz-adv-x="351" 
d="M30 576v134h299v-76c-80 -102 -119 -210 -148 -357h-98c29 142 75 260 142 354h-110v-55h-85z" />
    <glyph glyph-name="eight.numerator" horiz-adv-x="388" 
d="M194 347c42 0 62 24 62 54c0 31 -22 54 -62 54s-62 -23 -62 -54c0 -30 20 -54 62 -54zM194 539c37 0 57 21 57 51c0 26 -19 49 -57 49s-57 -23 -57 -49c0 -30 20 -51 57 -51zM194 267c-99 0 -154 54 -154 130c0 41 15 79 53 103c-29 23 -44 56 -44 92
c0 73 55 127 145 127s145 -54 145 -127c0 -36 -15 -69 -45 -92c39 -24 54 -62 54 -103c0 -76 -55 -130 -154 -130z" />
    <glyph glyph-name="nine.numerator" horiz-adv-x="391" 
d="M207 277h-120c50 49 98 99 127 147c-6 -1 -18 -8 -37 -8c-93 0 -146 67 -146 150c0 85 63 154 159 154c101 0 160 -72 160 -162c0 -99 -62 -192 -143 -281zM126 566c0 -42 27 -71 64 -71c38 0 64 29 64 71c0 41 -26 70 -64 70c-37 0 -64 -29 -64 -70z" />
    <glyph glyph-name="Euro.oldstyle" horiz-adv-x="580" 
d="M53 204v90h68c-1 11 -1 22 -1 34v35h-67v90h81c37 136 137 217 278 217c74 0 120 -20 120 -20v-114s-51 23 -120 23c-79 0 -127 -39 -151 -106h180v-90h-198c-1 -12 -1 -23 -1 -35s0 -24 1 -34h198v-90h-179c23 -67 71 -106 150 -106c67 0 120 22 120 22v-113
s-46 -20 -120 -20c-142 0 -241 80 -278 217h-81z" />
    <glyph glyph-name="dollar.oldstyle" horiz-adv-x="591" 
d="M271 -125v120c-147 11 -216 109 -218 214h119c2 -50 30 -99 99 -110v181l-25 7c-124 33 -171 102 -171 190c0 92 68 174 196 185v104h64v-104c130 -15 191 -110 194 -212h-119c-4 40 -24 84 -75 100v-165l14 -3c126 -36 180 -94 180 -202c0 -93 -69 -173 -194 -185v-120
h-64zM194 481c0 -39 19 -62 77 -78v153c-53 -7 -77 -37 -77 -75zM409 180c0 42 -25 67 -74 81v-160c51 12 74 44 74 79z" />
    <glyph glyph-name="cent.oldstyle" horiz-adv-x="580" 
d="M261 -15v106c-121 15 -200 117 -200 240c0 122 79 224 200 239v109h62v-109c117 -14 178 -105 189 -184h-115c-10 38 -37 67 -74 76v-264c37 10 64 38 74 78h114c-11 -81 -72 -172 -188 -185v-106h-62zM173 331c0 -71 34 -121 88 -134v267c-54 -13 -88 -65 -88 -133z" />
    <glyph glyph-name="sterling.oldstyle" horiz-adv-x="586" 
d="M76 248v84h55c-16 38 -31 81 -31 136c0 115 82 202 220 202c132 0 221 -84 221 -212c0 -18 -4 -35 -4 -35h-118s3 13 3 33c0 61 -32 106 -102 106c-64 0 -102 -40 -102 -100c0 -41 14 -77 39 -130h155v-84h-131c2 -5 3 -16 3 -28c0 -40 -11 -70 -27 -92
c56 -10 97 -37 155 -37c59 0 94 53 94 53l68 -70s-51 -90 -178 -90c-91 0 -126 42 -203 42c-52 0 -88 -47 -88 -47l-66 72s30 48 93 69c33 21 46 50 46 85c0 15 -2 28 -8 43h-94z" />
    <glyph glyph-name="florin.oldstyle" horiz-adv-x="458" 
d="M287 310l-63 -317c-22 -108 -84 -163 -182 -163c-47 0 -87 20 -91 23l41 96c2 -2 23 -14 48 -14c38 0 59 22 69 71l59 304h-85l19 103h86l20 95c22 108 83 162 181 162c48 0 88 -20 91 -22l-40 -96c-3 2 -23 13 -48 13c-40 0 -60 -22 -69 -70l-16 -82h85l-19 -103h-86z
" />
    <glyph glyph-name="yen.oldstyle" horiz-adv-x="521" 
d="M9 671h129l121 -251h2l121 251h130l-169 -324h108v-84h-130v-65h130v-83h-130v-115h-121v115h-131v83h131v65h-131v84h107z" />
    <glyph glyph-name="zero.onumtab" horiz-adv-x="552" 
d="M514 269c0 -164 -91 -282 -238 -282s-238 118 -238 282s91 282 238 282s238 -118 238 -282zM392 269c0 107 -45 174 -116 174s-116 -67 -116 -174s45 -174 116 -174s116 67 116 174z" />
    <glyph glyph-name="one.onumtab" horiz-adv-x="552" 
d="M511 101v-101h-440v101h159v318h-152v80l176 40h98v-438h159z" />
    <glyph glyph-name="two.onumtab" horiz-adv-x="552" 
d="M183 324h-121s-2 13 -2 26c0 119 80 201 212 201c114 0 208 -63 208 -185c0 -96 -68 -154 -159 -214l-69 -46h249v-106h-440v91l168 118c83 58 129 94 129 153c0 46 -30 82 -89 82s-89 -37 -89 -93c0 -16 3 -27 3 -27z" />
    <glyph glyph-name="three.onumtab" horiz-adv-x="552" 
d="M208 164v104h64c72 0 106 37 106 84c0 50 -32 88 -98 88c-70 0 -99 -50 -101 -101h-119c3 122 90 211 220 211c135 0 217 -78 217 -191c0 -57 -28 -111 -86 -139c66 -27 93 -82 93 -148c0 -115 -89 -206 -228 -206c-135 0 -224 89 -230 217h119c5 -59 41 -106 111 -106
c65 0 107 36 107 95c0 57 -37 92 -111 92h-64z" />
    <glyph glyph-name="four.onumtab" horiz-adv-x="552" 
d="M542 136v-106h-93v-150h-112v150h-314v90l303 419h123v-403h93zM161 136h176v241h-2z" />
    <glyph glyph-name="five.onumtab" horiz-adv-x="552" 
d="M62 161l54 378h354v-106h-262l-20 -143c11 11 47 35 109 35c148 0 211 -113 211 -221c0 -130 -95 -228 -233 -228c-129 0 -217 79 -227 197h118c9 -48 45 -91 109 -91c69 0 112 46 112 122c0 72 -42 120 -112 120c-65 0 -95 -46 -102 -63h-111z" />
    <glyph glyph-name="six.onumtab" horiz-adv-x="552" 
d="M261 659h149c-72 -69 -150 -154 -195 -240c19 12 48 21 85 21c135 0 214 -101 214 -223c0 -127 -95 -230 -237 -230c-147 0 -238 107 -238 242c0 150 95 295 222 430zM393 217c0 73 -45 123 -116 123s-117 -51 -117 -123s47 -123 117 -123c71 0 116 51 116 123z" />
    <glyph glyph-name="seven.onumtab" horiz-adv-x="552" 
d="M34 539h495v-108c-141 -168 -185 -333 -221 -551h-127c35 223 103 407 205 549h-234v-91h-118v201z" />
    <glyph glyph-name="eight.onumtab" horiz-adv-x="511" 
d="M256 93c73 0 106 44 106 95c0 56 -40 95 -106 95c-67 0 -107 -39 -107 -95c0 -51 33 -95 107 -95zM256 388c62 0 97 38 97 90c0 44 -30 87 -97 87c-68 0 -97 -43 -97 -87c0 -52 34 -90 97 -90zM256 -13c-145 0 -226 80 -226 194c0 61 27 124 88 158
c-47 33 -72 88 -72 143c0 105 76 188 210 188c133 0 209 -83 209 -188c0 -55 -25 -110 -72 -143c61 -34 89 -97 89 -158c0 -114 -82 -194 -226 -194z" />
    <glyph glyph-name="nine.onumtab" horiz-adv-x="552" 
d="M291 -121h-150c72 69 150 154 196 240c-20 -12 -49 -21 -86 -21c-134 0 -214 101 -214 223c0 127 96 230 238 230c147 0 237 -107 237 -242c0 -150 -95 -295 -221 -430zM158 321c0 -73 46 -123 117 -123c70 0 116 51 116 123s-47 123 -116 123c-71 0 -117 -51 -117 -123z
" />
    </font>
</defs>
</svg>
